<?xml version="1.0" encoding="UTF-8"?>
<svg xmlns="http://www.w3.org/2000/svg" xmlns:xlink="http://www.w3.org/1999/xlink" version="1.1" id="Layer_1" x="0px" y="0px" width="100%" viewBox="115 202 801 565" xml:space="preserve">
<path fill="#72BFF1" opacity="1.000000" stroke="none" d=" M548.941650,226.118164   C616.402039,241.152206 663.946899,279.745758 689.107605,344.735870   C690.180908,347.508179 691.288879,348.981415 694.635498,349.193573   C713.762634,350.406342 731.528748,355.665771 747.113281,367.353821   C766.177673,381.651764 777.446350,400.538513 781.017212,424.030945   C781.814941,429.279541 782.483826,434.581512 782.674011,439.878235   C782.833313,444.314758 785.283020,445.867523 789.027832,446.802734   C805.596741,450.940460 820.434570,458.634277 833.744751,469.230469   C861.968140,491.699036 879.579163,520.984863 886.720703,556.055481   C895.525024,599.292175 888.300476,639.967529 862.363220,676.178650   C838.318542,709.747559 805.650452,730.306091 764.682251,737.171265   C763.047302,737.445251 761.411255,737.712646 759.087646,737.666992   C756.578247,737.227722 754.756836,737.104614 752.935425,736.981506  C752.957092,736.527893 752.978699,736.074219 753.444336,735.210693   C753.944702,732.544373 754.001038,730.288086 754.057373,728.031738   C754.020447,687.913208 753.960022,647.794739 753.952026,607.676208   C753.939453,544.748840 753.962402,481.821411 754.288086,418.197205   C754.243225,416.350586 753.880493,415.200775 753.517700,414.050964   C753.351685,413.535309 753.185608,413.019623 753.309204,412.016418   C753.208679,410.702026 752.818420,409.875122 752.428162,409.048218   C749.035278,402.476685 746.163574,395.563354 742.129761,389.412109   C735.740540,379.668854 725.717529,374.881165 714.306885,371.172577   C710.528503,370.084076 707.281250,369.079010 704.033264,369.077057   C570.242798,368.996490 436.452240,368.993408 302.661743,369.095795   C300.015167,369.097809 297.369598,370.468567 294.723572,371.200745   C287.784332,374.643982 280.284363,377.289764 274.020721,381.693878   C260.300171,391.341095 254.011307,405.198334 254.014618,421.969574   C254.034744,523.684265 254.027725,625.398926 253.695648,727.853699   C252.726089,730.770325 252.090668,732.946960 251.455231,735.123535   C244.852188,733.043701 237.920593,731.669556 231.698196,728.772278   C182.254181,705.750671 151.349930,667.407288 138.290604,614.555115   C137.814346,612.627686 137.505219,610.658997 137.387085,608.056885   C137.191574,605.620300 136.727203,603.836487 136.262848,602.052612   C136.209351,601.866394 136.155853,601.680237 136.393646,600.907410   C136.478241,596.514587 138.800476,592.361084 135.134079,589.030090   C135.072525,588.263977 135.010971,587.497925 135.291687,586.056702   C135.459335,579.940796 135.284698,574.500000 135.110046,569.059204   C135.853653,548.881226 140.655899,529.620911 148.987320,511.324097   C160.152390,486.804138 175.827377,465.827393 198.648407,450.808136   C201.144333,449.165527 203.628403,447.066833 206.413513,446.382477   C215.364182,444.183105 216.595291,437.714966 216.952789,429.984131   C217.932968,408.788727 225.993301,390.614716 241.518890,376.038910   C257.220154,361.298187 276.152588,353.317810 297.390289,351.038727   C306.619659,350.048340 315.979553,350.105377 325.282135,350.056061   C328.651520,350.038208 330.366333,348.994659 331.546082,345.834412   C352.972229,288.440002 393.373047,250.780029 451.191315,231.532455   C459.659576,228.713379 468.559601,227.191223 477.947174,225.367813   C480.281219,225.747177 481.941711,226.004623 483.572266,225.877762   C490.820648,225.313873 498.056091,224.183350 505.304443,224.113800   C515.917114,224.011948 526.536865,224.641800 537.153564,224.959839   C537.563354,224.957428 537.973145,224.955002 538.941956,225.264343   C541.056519,225.702744 542.612061,225.829376 544.167603,225.956024   C544.167603,225.956009 544.587646,225.947220 544.994629,226.239059   C546.581665,226.393326 547.761658,226.255753 548.941650,226.118164  z"></path>
<path fill="#2E3D48" opacity="1.000000" stroke="none" d=" M292.817169,740.969482   C290.200745,735.886108 287.584320,730.802795 285.334900,725.029663   C285.795837,722.521423 285.971405,720.703003 285.971832,718.884521   C285.988525,648.652100 285.980347,578.419739 286.036560,508.187378   C286.038177,506.163300 286.700134,504.139771 287.138184,502.263123   C287.468903,502.300262 287.715668,502.190247 288.348816,502.042725   C289.510101,502.031219 290.285065,502.057220 291.352905,502.363831   C296.078094,502.456299 300.510345,502.268158 305.330963,502.043091   C306.498199,502.031799 307.277069,502.057404 308.283142,502.338440   C309.988647,502.422791 311.467010,502.251648 313.415100,502.041565   C319.277985,502.032379 324.671051,502.062073 330.321228,502.355591   C332.699310,502.440796 334.820251,502.262177 337.407288,502.043793   C341.934937,502.030151 345.996490,502.056244 350.314514,502.348267   C352.694702,502.436859 354.818390,502.259583 357.291290,502.048706   C358.107056,502.038574 358.573669,502.062042 359.121521,502.237610   C359.455139,502.288177 359.707489,502.186676 360.425842,502.044403   C365.275238,502.032318 369.658691,502.060974 374.123291,502.240601   C374.455688,502.290680 374.706909,502.189789 375.406219,502.047852   C378.254944,502.031189 380.655640,502.055603 383.312500,502.346497   C385.692902,502.436432 387.817108,502.259857 390.351990,502.044647   C391.861145,502.032471 392.959656,502.058960 394.285675,502.339844   C395.990082,502.423584 397.466949,502.252930 399.405304,502.042786   C403.264465,502.031067 406.662109,502.058807 410.303711,502.346924   C412.345093,502.433716 414.142578,502.260162 416.410706,502.047028   C422.940430,502.033905 428.999573,502.060364 435.285950,502.341156   C436.989105,502.426056 438.465027,502.256653 440.383759,502.048035   C442.899078,502.037354 444.971619,502.065887 447.125061,502.244629   C447.456207,502.294128 447.706451,502.193390 448.426208,502.050751   C455.278046,502.036255 461.660400,502.063660 468.123901,502.241638   C468.455902,502.291504 468.706757,502.190796 469.417969,502.048523   C473.270752,502.034576 476.663147,502.062225 480.233154,502.323730   C481.255005,502.402283 482.099335,502.246948 483.296082,502.056519   C484.119720,502.043213 484.590881,502.065002 485.347473,502.363220   C489.068481,502.454376 492.504089,502.269104 496.408508,502.044739   C501.606232,502.033569 506.335114,502.061462 511.357330,502.368591   C516.079834,502.460480 520.509033,502.273102 525.291382,502.051910   C526.116455,502.040222 526.588440,502.062347 527.345642,502.361359   C531.066772,502.454071 534.502686,502.269867 538.291687,502.052704   C539.116516,502.043762 539.588257,502.067810 540.266357,502.336884   C541.629028,502.417694 542.785278,502.253510 544.377136,502.049438   C546.561401,502.035187 548.309998,502.060822 550.286133,502.340576   C551.990051,502.424438 553.466431,502.254150 555.413330,502.044250   C562.274292,502.032654 568.664612,502.060730 575.232788,502.322876   C576.255432,502.400665 577.100403,502.244385 578.354004,502.048523   C579.856079,502.036377 580.949402,502.063843 582.123901,502.242004   C582.455872,502.291779 582.706726,502.190887 583.427246,502.048248   C597.284729,502.033905 610.672546,502.061340 624.287903,502.342316   C625.990845,502.426025 627.466125,502.256226 629.376953,502.046997   C631.560242,502.035309 633.308105,502.063019 635.233765,502.324341   C636.255859,502.402100 637.100037,502.246185 638.414185,502.048950   C644.609558,502.033173 650.334900,502.058746 656.341064,502.359436   C659.726990,502.452301 662.832092,502.270081 666.290955,502.053833   C667.117432,502.042664 667.590210,502.065460 668.344116,502.362274   C671.729553,502.453033 674.833862,502.269745 678.408569,502.046844   C684.604736,502.032257 690.330505,502.057312 696.283203,502.337280   C697.986633,502.424469 699.463074,502.256744 701.410156,502.048645   C707.933655,502.033447 713.986694,502.058624 720.134277,502.282410   C720.413269,502.726349 720.654419,502.886139 720.963867,503.301178   C720.981201,504.096710 720.987000,504.551453 720.985901,505.389771   C720.765930,509.176575 720.346130,512.581543 720.375000,515.982727   C720.513611,532.291504 720.934448,548.598999 720.960510,564.907410   C721.043518,616.937744 720.995911,668.968262 720.998657,721.399292   C720.998230,722.867493 720.997803,723.934998 720.842346,725.364502   C720.304749,728.937317 719.922119,732.148193 719.539551,735.359009   C719.539551,735.359009 719.336609,735.334839 719.080322,735.382141   C718.612549,736.027161 718.401062,736.624939 718.189575,737.222656   C718.189575,737.222656 718.076538,737.081787 717.791016,737.091125   C716.043884,738.791931 714.582275,740.483398 713.120667,742.174805   C713.120667,742.174805 713.078186,742.059265 712.713257,742.049805   C703.940674,745.713013 694.916992,744.365845 686.206360,744.801208   C672.388733,745.492004 658.511169,744.986511 644.658997,744.986511   C629.421509,744.986450 614.182800,745.109802 598.946899,744.953552   C580.340576,744.762695 561.737488,744.169128 543.131409,744.079651   C532.932617,744.030640 522.732117,744.861572 512.529602,744.942078   C493.463715,745.092590 474.395721,744.985474 455.328613,744.985352   C438.084808,744.985291 420.840973,744.984863 403.597168,744.984924   C380.452209,744.984924 357.307220,745.013977 334.162354,744.965759   C328.144470,744.953247 322.120850,744.824524 316.111115,744.524414   C309.347717,744.186707 302.597046,743.594604 295.840820,743.113159   C295.840820,743.113159 295.927673,743.049377 295.906372,742.729248   C294.862396,741.929321 293.839783,741.449402 292.817169,740.969482  M357.143372,603.144165   C357.143372,603.144165 357.294678,603.174622 356.717896,603.294312   C356.530548,603.621033 356.343201,603.947693 356.127380,604.128601   C356.127380,604.128601 356.273438,604.155762 355.703827,604.284912   C355.515320,604.608459 355.326813,604.932007 355.113342,605.113464   C355.113342,605.113464 355.255646,605.137878 354.692047,605.280396   C354.507080,605.604797 354.322083,605.929138 354.112488,606.111755   C354.112488,606.111755 354.254333,606.135925 353.691223,606.279724   C353.506836,606.604004 353.322479,606.928223 353.110992,607.104431   C353.110992,607.104431 353.260193,607.124207 352.685333,607.290222   C352.487885,607.623596 352.290436,607.957031 351.830780,608.888916   C344.035645,616.569031 336.124695,624.136108 328.482697,631.965759   C322.569519,638.024170 323.899200,646.965881 331.344330,651.568542   C331.943665,651.681946 332.542999,651.795349 333.056000,651.941284   C333.056000,651.941284 333.078003,651.851685 333.144257,652.612915   C337.294342,654.939270 341.283020,653.520142 344.205292,648.194824   C346.116455,646.457092 348.027649,644.719360 350.602112,642.919067   C350.842712,642.439819 351.083313,641.960571 351.453156,641.430725   C351.453156,641.430725 351.538818,641.321533 352.100861,641.536316   C352.164642,641.208862 352.228394,640.881409 352.418854,640.436157   C352.418854,640.436157 352.541321,640.313904 353.100433,640.534119   C353.164246,640.207520 353.228027,639.880859 353.405701,639.452881   C353.405701,639.452881 353.480988,639.320190 354.107941,639.522949   C354.398560,638.993347 354.689209,638.463745 355.219788,637.348816   C356.458832,636.226196 357.697876,635.103577 359.600769,633.916687   C359.848602,633.437317 360.096436,632.957947 360.466827,632.450562   C360.466827,632.450562 360.531830,632.343018 361.105286,632.542358   C361.177582,632.209290 361.249878,631.876160 361.433533,631.470703   C361.433533,631.470703 361.478973,631.345886 362.108490,631.534302   C362.396576,631.005676 362.684692,630.477112 362.999390,630.000000   C362.999390,630.000000 362.948029,629.973328 363.609222,629.913513   C363.849487,629.435486 364.089752,628.957458 364.456116,628.442688   C364.456116,628.442688 364.531403,628.335083 365.104401,628.539551   C365.179108,628.205627 365.253845,627.871765 365.439758,627.476807   C365.439758,627.476807 365.473877,627.354614 366.110443,627.534241   C366.399750,626.999390 366.689087,626.464478 367.223450,625.316772   C369.460510,623.204651 371.697571,621.092529 374.609711,618.914612   C375.063995,618.247192 375.518280,617.579773 376.207336,616.326233   C377.449768,615.210999 378.692169,614.095703 380.598419,612.918518   C380.838165,612.439270 381.077881,611.960083 381.448547,611.425476   C381.448547,611.425476 381.539368,611.316101 382.099762,611.534424   C382.163177,611.207458 382.226593,610.880554 382.403992,610.452332   C382.403992,610.452332 382.478363,610.319275 383.108429,610.520508   C383.397522,609.987427 383.686615,609.454346 384.227295,608.313110   C386.427551,606.190186 388.627808,604.067261 391.576447,601.914185   C396.134064,596.995300 396.195282,591.752686 391.886169,588.111328   C391.886169,588.111328 391.859589,588.259399 391.738129,587.713806   C391.456299,587.489990 391.174500,587.266113 390.973572,587.034546   C390.973572,587.034546 390.938873,587.108032 390.902405,586.430420   C390.424927,586.127686 389.947479,585.824890 389.849030,585.505920   C389.849030,585.505920 389.470520,585.480713 389.582336,584.864014   C389.232056,584.728943 388.881744,584.593872 388.799255,583.970276   C388.717804,584.136902 388.636322,584.303589 388.598969,583.844727   C388.240417,583.734009 387.881836,583.623352 387.963898,583.181091   C387.810394,583.282227 387.656921,583.383301 387.584961,582.865662   C387.231537,582.773621 386.878113,582.681519 386.529114,582.485596   C386.529114,582.485596 386.425171,582.485107 386.565247,581.883667   C386.220886,581.800903 385.876526,581.718140 385.503021,581.527893   C385.503021,581.527893 385.391693,581.531555 385.546906,580.882690   C385.004242,580.596802 384.461578,580.310913 383.305969,579.768250   C379.168823,575.626221 375.031708,571.484131 370.720703,566.755493   C370.385651,566.549438 370.050568,566.343445 369.876984,566.116333   C369.876984,566.116333 369.846100,566.276245 369.704041,565.704041   C369.369080,565.529541 369.034149,565.354980 368.853333,565.147522   C368.853333,565.147522 368.822235,565.302002 368.694611,564.720703   C368.356323,564.549011 368.018036,564.377380 367.833679,564.168640   C367.833679,564.168640 367.797852,564.322937 367.684448,563.734436   C367.343872,563.563843 367.003326,563.393250 366.819641,563.182190   C366.819641,563.182190 366.781311,563.339539 366.677612,562.745422   C366.334930,562.576050 365.992249,562.406677 365.807526,562.193787   C365.807526,562.193787 365.766937,562.352539 365.672211,561.754700   C365.328491,561.586304 364.984802,561.417969 364.770477,561.212585   C364.770477,561.212585 364.711670,561.333618 364.827515,560.583191   C364.092346,560.175049 363.357208,559.766846 362.763123,559.219788   C362.763123,559.219788 362.690735,559.403992 362.646667,558.790039   C362.296783,558.632202 361.946869,558.474365 361.743683,558.257874   C361.743683,558.257874 361.690491,558.406677 361.641266,557.791016   C361.285400,557.649536 360.929535,557.507996 360.716339,557.286560   C360.716339,557.286560 360.642578,557.432495 360.624817,556.810913   C360.265991,556.684448 359.907166,556.557922 359.876526,556.074829   C359.876526,556.074829 359.579071,556.457458 359.607849,555.833496   C359.250488,555.712830 358.893097,555.592163 358.880005,555.007324   C358.768097,555.162048 358.656219,555.316711 358.594360,554.848755   C358.237244,554.749451 357.880127,554.650208 357.611237,554.413330   C357.611237,554.413330 357.464630,554.485596 357.576233,553.871338   C357.224701,553.771423 356.873169,553.671509 356.545502,553.471985   C356.545502,553.471985 356.444153,553.486450 356.570465,552.879639   C356.223419,552.793213 355.876373,552.706787 355.406250,552.503540   C355.406250,552.503540 355.285034,552.384705 355.559235,552.070068   C355.369141,552.062927 355.179016,552.055847 354.361725,551.784607   C350.620056,548.305298 347.016510,544.659973 343.095001,541.396790   C339.674072,538.550110 332.892914,538.060486 330.552643,540.054932   C324.689117,545.052063 323.541382,550.523560 327.269287,557.123474   C327.615082,557.370605 327.960876,557.617737 328.131470,557.883301   C328.131470,557.883301 328.167206,557.710815 328.295380,558.286560   C328.625977,558.466614 328.956543,558.646606 329.141937,558.858093   C329.141937,558.858093 329.172241,558.712646 329.291901,559.288147   C329.619324,559.473755 329.946747,559.659302 330.126312,559.872925   C330.126312,559.872925 330.153442,559.724915 330.293182,560.296387   C330.625549,560.473694 330.957916,560.651001 331.139252,560.859314   C331.139252,560.859314 331.169250,560.708069 331.297241,561.284668   C331.628235,561.466675 331.959229,561.648743 332.136841,561.861084   C332.136841,561.861084 332.166473,561.707581 332.303772,562.285339   C332.642029,562.456909 332.980286,562.628540 333.161377,562.836182   C333.161377,562.836182 333.196014,562.678711 333.314087,563.265991   C333.653534,563.439636 333.993011,563.613342 334.173645,563.826111   C334.173645,563.826111 334.210022,563.666626 334.317108,564.257935   C334.656128,564.433777 334.995178,564.609558 335.205963,564.817932   C335.205963,564.817932 335.257721,564.696167 335.128906,565.431274   C336.877289,566.833679 338.625671,568.236084 340.241058,569.764160   C340.241058,569.764160 340.301697,569.591553 340.357330,570.208374   C340.712860,570.357422 341.068359,570.506470 341.278961,570.719971   C341.278961,570.719971 341.336121,570.572021 341.367340,571.193726   C341.723999,571.338623 342.080658,571.483521 342.300659,571.697632   C342.300659,571.697632 342.362518,571.557556 342.378326,572.182129   C342.738770,572.307312 343.099182,572.432556 343.124176,572.956238   C343.226715,572.816101 343.329254,572.675964 343.393707,573.160828   C343.749756,573.291870 344.105774,573.422913 344.144745,573.977905   C344.241241,573.830139 344.337738,573.682434 344.396820,574.159729   C344.754761,574.278198 345.112671,574.396729 345.000702,574.878113   C345.157501,574.760071 345.314301,574.642029 345.407440,575.146729   C345.763763,575.252197 346.120087,575.357605 346.284302,575.669678   C346.284302,575.669678 346.521393,575.516663 346.419495,576.133911   C346.772522,576.238953 347.125549,576.343933 347.363525,576.594299   C347.363525,576.594299 347.530853,576.514465 347.422882,577.131104   C347.775757,577.238403 348.128632,577.345703 348.333588,577.630493   C348.333588,577.630493 348.531769,577.511841 348.423187,578.124512   C348.772980,578.213440 349.122803,578.302307 349.487701,578.498962   C349.487701,578.498962 349.594788,578.518188 349.440277,579.111450   C349.780060,579.185547 350.119843,579.259644 350.531982,579.452576   C350.531982,579.452576 350.647827,579.529602 350.455139,580.107117   C350.790039,580.182068 351.124969,580.257019 351.515503,580.442383   C351.515503,580.442383 351.636017,580.469788 351.465240,581.115234   C352.008270,581.400391 352.551270,581.685547 353.709137,582.220947   C357.164917,585.736572 360.620728,589.252258 363.940460,593.537231   C363.713623,594.793518 363.486816,596.049805 363.206940,597.184326   C363.206940,597.184326 363.335876,597.216248 362.743073,597.320374   C362.573639,597.662170 362.404205,598.003967 362.191650,598.191406   C362.191650,598.191406 362.346802,598.231567 361.751404,598.320801   C361.573547,598.658203 361.395721,598.995605 361.177246,599.179565   C361.177246,599.179565 361.331573,599.216614 360.742401,599.310059   C360.554749,599.639954 360.367126,599.969849 360.146545,600.147644   C360.146545,600.147644 360.299133,600.178711 359.719421,600.300293   C359.539795,600.632874 359.360168,600.965454 359.147736,601.147400   C359.147736,601.147400 359.298706,601.178711 358.718994,601.299561   C358.538605,601.631775 358.358246,601.964050 358.145752,602.144775   C358.145752,602.144775 358.297455,602.175842 357.718689,602.299561   C357.537628,602.631409 357.356537,602.963257 357.143372,603.144165  M612.069885,642.058472   C612.069885,642.058472 612.148438,642.091248 611.488098,642.095276   C611.019043,642.465149 610.549927,642.835022 610.085693,643.090454   C610.085693,643.090454 610.192383,643.132263 609.525452,643.102417   C609.038086,643.458557 608.550659,643.814758 608.070679,644.071045   C608.070679,644.071045 608.163818,644.107849 607.342041,644.037354   C606.057739,644.280579 604.763123,644.479431 603.490784,644.774475   C596.099854,646.487915 588.792847,649.043335 581.308411,649.761169   C569.951538,650.850464 559.037109,647.722168 548.428955,643.725342   C546.614014,643.041504 544.685974,642.657654 542.903259,642.083618   C542.903259,642.083618 542.879822,642.187439 542.927734,641.510742   C541.625549,640.988220 540.323303,640.465637 538.154236,639.995300   C531.312378,639.545715 525.927429,643.374146 520.263733,646.233215   C500.156525,656.383728 485.554626,671.146240 480.079681,694.197388   C479.444427,700.792725 478.753204,707.383972 478.270630,713.990479   C478.227844,714.576111 479.544922,715.261108 480.106873,715.902710   C480.106873,715.902710 480.147797,715.786133 480.127319,716.489685   C480.555267,716.955200 480.983215,717.420654 481.902588,718.179321   C482.626892,719.043213 483.351196,719.907104 484.084503,721.506653   C485.725800,722.335388 487.367065,723.164124 489.944641,723.986145   C547.434143,723.984924 604.923645,723.994141 662.413086,723.935303   C664.265625,723.933411 666.117554,723.235596 668.148071,722.417236   C668.148071,722.417236 668.553101,722.160645 668.553101,722.160645   C668.553101,722.160645 669.032532,722.166992 669.267029,722.471375   C669.486511,722.265503 669.705994,722.059570 669.929932,721.943054   C669.929932,721.943054 669.849365,721.904114 670.623962,721.958008   C673.215576,721.649536 675.151062,720.763062 674.896179,717.999023   C674.763550,717.853882 674.630981,717.708679 675.272888,717.629639   C676.191956,715.809631 677.576843,714.080566 677.952515,712.154541   C679.986267,701.727600 675.575500,692.177551 673.391602,682.349548   C673.033142,680.736450 670.921265,679.513000 669.111633,677.674072   C667.612793,675.101013 666.315002,672.382935 664.582214,669.978516   C653.899292,655.154541 639.159790,646.195801 621.847839,640.145081   C618.597595,637.836060 615.504272,636.512756 613.130066,641.467773   C613.130066,641.467773 613.413330,641.438354 612.828064,641.337463   C612.573059,641.606079 612.318054,641.874634 612.069885,642.058472  M620.975098,610.956970   C620.975098,610.956970 620.887024,610.935791 621.619568,610.907837   C622.056946,609.900635 622.494385,608.893433 622.984192,607.957703   C622.984192,607.957703 622.896912,607.942566 623.643494,607.901672   C624.034973,606.857056 624.426453,605.812439 624.859680,604.893738   C624.859680,604.893738 624.727539,604.881775 625.363037,604.663940   C625.528015,604.042664 625.693054,603.421387 625.897400,602.904846   C625.897400,602.904846 625.785583,602.901978 626.493164,602.741272   C627.164490,601.816101 628.072815,600.982422 628.470886,599.951721   C632.920654,588.429382 635.380981,576.695435 631.278015,564.524597   C630.175537,561.254333 628.501099,558.176880 626.604370,554.453064   C624.588684,551.155151 622.843018,547.651672 620.514282,544.591980   C603.007141,521.589905 577.823242,518.548706 554.061768,528.633972   C539.504395,534.812622 530.262268,548.249329 525.059875,564.223877   C520.371155,579.062988 523.261230,592.955994 530.386169,606.289917   C530.603210,606.696045 531.536987,606.719177 532.042725,606.935852   C532.042725,606.935852 532.092224,606.854614 532.040710,607.602356   C532.728516,608.382507 533.416321,609.162598 534.017456,609.960510   C534.017456,609.960510 534.066711,609.887024 534.035217,610.649902   C534.776062,611.404968 535.516907,612.160034 536.846680,613.198914   C544.450134,622.158813 553.788025,628.534302 565.199097,632.873657   C573.670410,634.481628 582.241455,635.848633 590.675598,633.362427   C594.310913,632.290771 597.503906,629.718994 600.907593,627.923889   C600.907593,627.923889 600.821533,627.882141 601.487976,627.899780   C601.967224,627.534363 602.446533,627.169006 602.920227,626.914246   C602.920227,626.914246 602.817017,626.874023 603.587769,626.949280   C604.577332,626.127380 605.566833,625.305481 606.679688,624.536072   C606.679688,624.536072 606.557983,624.592224 607.178833,624.639893   C607.421265,624.329163 607.663696,624.018433 608.050842,623.274963   C608.272034,623.027771 608.547363,622.923462 609.534180,622.977783   C610.343018,622.475891 611.151855,621.974060 612.389587,620.885254   C614.743896,618.222778 617.098206,615.560303 620.132874,612.706421   C620.398499,612.097107 620.664124,611.487854 620.975098,610.956970  M449.570679,621.895752   C448.833527,621.613281 448.097382,621.087341 447.359131,621.084351   C433.987213,621.030457 420.614685,621.001709 407.243408,621.106567   C406.163208,621.114990 405.090942,622.132996 403.513000,623.050781   C393.838684,629.146423 394.071381,638.553223 404.460052,645.192749   C405.209167,645.452637 405.957458,645.936462 406.707489,645.939148   C420.080933,645.987000 433.454742,646.004517 446.827942,645.931824   C448.064667,645.925110 449.297882,645.263794 450.477600,644.222778   C460.602875,638.233154 460.389709,628.909912 449.570679,621.895752  z"></path>
<path fill="#2E3E48" opacity="1.000000" stroke="none" d=" M717.371826,408.886292   C717.889954,409.379517 718.408020,409.872742 719.002563,410.958649   C719.453613,412.007080 719.828247,412.462799 720.202942,412.918488   C720.202942,412.918488 720.091614,412.916534 720.064941,413.306274   C720.358093,416.645142 720.941833,419.593140 720.954651,422.543579   C721.031555,440.339355 720.977661,458.135681 720.501831,475.963074   C575.493591,475.994324 430.951019,475.994324 285.992218,475.994324   C285.992218,473.396790 285.992249,471.591278 285.992218,469.785767   C285.991791,455.290253 286.020142,440.794647 285.953308,426.299438   C285.945251,424.550018 285.422394,422.803009 285.138123,421.054871   C285.443146,419.181519 285.748169,417.308167 286.661865,415.091736   C287.785278,413.421783 288.300049,412.094879 288.814789,410.768005   C288.814789,410.768005 288.854980,410.882751 289.084106,410.786865   C289.431915,410.326508 289.550598,409.962006 289.669281,409.597534   C289.669281,409.597534 289.722046,409.752319 289.959717,409.693604   C290.285645,409.267578 290.373901,408.900208 290.462158,408.532867   C290.462128,408.532867 290.721954,408.779205 290.930359,408.688110   C291.254150,408.239471 291.369568,407.881958 291.484985,407.524445   C291.484985,407.524445 291.581238,407.524414 291.919312,407.621521   C292.793976,407.078094 293.330505,406.437592 293.867035,405.797058   C293.867035,405.797058 293.894287,405.900909 294.260132,405.925476   C298.024658,405.299744 301.424194,404.076691 304.821930,404.081757   C440.600769,404.284332 576.379456,404.598175 712.158142,404.897644   C712.158142,404.897644 712.072083,404.932465 712.188721,405.157837   C712.677856,405.431671 713.050293,405.480164 713.422791,405.528625   C713.422791,405.528625 713.116333,405.583710 713.258240,405.877472   C713.998047,406.400940 714.595886,406.630615 715.193787,406.860321   C715.193787,406.860321 715.089172,406.892975 715.181580,407.115265   C715.608704,407.504425 715.943481,407.671295 716.278198,407.838196   C716.278198,407.838196 716.114868,407.874481 716.210754,408.091431   C716.661682,408.501007 717.016785,408.693665 717.371826,408.886292  M369.274200,449.352386   C369.602417,449.541016 369.930664,449.729614 370.845825,450.218750   C379.005951,456.650787 380.899872,458.132111 388.693787,453.960602   C394.445251,450.882294 397.196655,446.115601 396.635010,440.418823   C396.105560,435.049072 391.351135,428.805634 385.581207,426.890717   C379.461639,424.859741 375.921326,428.521698 370.960022,431.267731   C370.646790,431.868042 370.333557,432.468353 369.978333,433.532593   C369.866180,433.866028 369.635101,434.050293 368.649414,434.335602   C368.494446,434.970978 368.339447,435.606384 368.139038,436.108826   C368.139038,436.108826 368.279236,436.117279 367.636871,436.332184   C367.445282,436.951508 367.253693,437.570862 367.050171,438.616150   C367.050171,438.616150 366.912781,439.019501 366.391357,439.424805   C366.565491,440.610077 366.739624,441.795349 367.053955,443.390198   C367.053955,443.390198 367.055878,443.823090 367.014099,444.563416   C367.423553,445.350037 367.832977,446.136627 368.112213,446.934784   C368.112213,446.934784 368.139832,446.807007 368.077881,447.476318   C368.454773,447.960480 368.831635,448.444672 369.067383,448.945251   C369.067383,448.945251 369.077515,448.803528 369.274200,449.352386  M317.622284,435.228149   C317.428314,435.531647 317.234344,435.835144 317.026672,437.015778   C317.022583,438.669220 316.955872,440.325256 317.025055,441.975616   C317.346588,449.645721 324.848694,456.037292 332.389709,455.923035   C339.536469,455.814667 342.486877,451.016754 346.212524,445.674469   C349.217834,441.700653 348.426086,438.200623 344.966370,435.051056   C344.966370,435.051056 344.932465,435.124268 344.893860,434.463104   C344.508148,434.001709 344.122406,433.540314 343.185883,432.817657   C342.099121,431.627930 341.012360,430.438232 339.686035,428.643433   C339.086487,428.449158 338.486938,428.254883 337.956848,428.014618   C337.956848,428.014618 337.948395,428.097473 337.891174,427.337952   C332.450623,424.027924 328.915955,424.245728 325.059235,428.046417   C325.059235,428.046417 325.136871,428.076477 324.460449,428.110718   C324.007660,428.524536 323.554871,428.938354 322.815552,429.874603   C321.668915,430.952393 320.522308,432.030182 318.731140,433.319336   C318.519196,433.932037 318.307251,434.544739 318.062683,435.074127   C318.062683,435.074127 318.151978,435.069458 317.622284,435.228149  z"></path>
<path fill="#23333E" opacity="1.000000" stroke="none" d=" M296.066284,743.398438   C302.597046,743.594604 309.347717,744.186707 316.111115,744.524414   C322.120850,744.824524 328.144470,744.953247 334.162354,744.965759   C357.307220,745.013977 380.452209,744.984924 403.597168,744.984924   C420.840973,744.984863 438.084808,744.985291 455.328613,744.985352   C474.395721,744.985474 493.463715,745.092590 512.529602,744.942078   C522.732117,744.861572 532.932617,744.030640 543.131409,744.079651   C561.737488,744.169128 580.340576,744.762695 598.946899,744.953552   C614.182800,745.109802 629.421509,744.986450 644.658997,744.986511   C658.511169,744.986511 672.388733,745.492004 686.206360,744.801208   C694.916992,744.365845 703.940674,745.713013 712.763062,742.086060   C708.587036,745.955139 703.102844,746.939941 697.376831,746.940430   C569.983093,746.950684 442.589325,746.986084 315.195892,746.794800   C308.892975,746.785339 302.593079,744.766785 296.066284,743.398438  z"></path>
<path fill="#1A2B38" opacity="1.000000" stroke="none" d=" M711.918701,404.610718   C576.379456,404.598175 440.600769,404.284332 304.821930,404.081757   C301.424194,404.076691 298.024658,405.299744 294.211731,405.902222   C298.645416,404.568634 303.489746,402.178284 308.341736,402.162659   C381.958405,401.925629 455.576050,402.000366 529.193481,402.000916   C585.988831,402.001343 642.784241,401.952789 699.579224,402.099457   C703.614441,402.109863 707.646057,403.549011 711.918701,404.610718  z"></path>
<path fill="#00050E" opacity="1.000000" stroke="none" d=" M696.056213,502.082336   C690.330505,502.057312 684.604736,502.032257 677.962524,502.017212   C674.051697,502.047546 671.057312,502.067902 668.062927,502.088257   C667.590210,502.065460 667.117432,502.042664 665.844971,502.024109   C662.050293,502.046997 659.055298,502.065643 656.060303,502.084290   C650.334900,502.058746 644.609558,502.033173 638.054077,502.019104   C636.501343,502.050659 635.778625,502.070709 635.055969,502.090759   C633.308105,502.063019 631.560242,502.035309 628.971436,502.017517   C626.773743,502.047913 625.417053,502.068329 624.060303,502.088776   C610.672546,502.061340 597.284729,502.033905 583.198730,502.028381   C582.500427,502.050293 582.042786,502.091309 582.042786,502.091309   C580.949402,502.063843 579.856079,502.036377 577.993591,502.018799   C576.501343,502.048706 575.778137,502.068726 575.054993,502.088745   C568.664612,502.060730 562.274292,502.032654 555.007690,502.015289   C552.773804,502.046143 551.416260,502.066284 550.058655,502.086426   C548.309998,502.060822 546.561401,502.035187 543.990112,502.019714   C542.131653,502.050507 541.095764,502.071198 540.059937,502.091858   C539.588257,502.067810 539.116516,502.043762 537.841431,502.022705   C533.712097,502.045319 530.386230,502.064911 527.060364,502.084473   C526.588440,502.062347 526.116455,502.040222 524.834229,502.022156   C519.703918,502.047272 515.383972,502.068329 511.063995,502.089355   C506.335114,502.061462 501.606232,502.033569 495.958130,502.015320   C491.713318,502.045563 488.387695,502.066193 485.062073,502.086792   C484.590881,502.065002 484.119720,502.043213 482.936005,502.026672   C481.500854,502.051270 480.778198,502.070557 480.055573,502.089844   C476.663147,502.062225 473.270752,502.034576 469.189392,502.028503   C468.500458,502.050049 468.042755,502.091095 468.042755,502.091095   C461.660400,502.063660 455.278046,502.036255 448.198181,502.030823   C447.500671,502.052795 447.044128,502.094391 447.044128,502.094391   C444.971619,502.065887 442.899078,502.037354 439.978271,502.018372   C437.772858,502.047546 436.415771,502.067200 435.058685,502.086853   C428.999573,502.060364 422.940430,502.033905 415.992340,502.017639   C413.422180,502.047394 411.740967,502.066956 410.059784,502.086548   C406.662109,502.058807 403.264465,502.031067 398.999451,502.013977   C396.774109,502.044922 395.416107,502.065186 394.058136,502.085449   C392.959656,502.058960 391.861145,502.032471 389.923492,502.015503   C387.074982,502.043365 385.065643,502.061707 383.056305,502.080017   C380.655640,502.055603 378.254944,502.031189 375.177338,502.027893   C374.500397,502.048981 374.042114,502.089630 374.042114,502.089630   C369.658691,502.060974 365.275238,502.032318 360.196075,502.024719   C359.500336,502.045807 359.040253,502.085541 359.040253,502.085541   C358.573669,502.062042 358.107056,502.038574 356.862732,502.019867   C354.076019,502.043884 352.067017,502.063110 350.058044,502.082367   C345.996490,502.056244 341.934937,502.030151 336.979065,502.015259   C334.077850,502.048248 332.071014,502.070007 330.064148,502.091766   C324.671051,502.062073 319.277985,502.032379 313.008911,502.012726   C310.773926,502.042877 309.414948,502.062927 308.055939,502.083008   C307.277069,502.057404 306.498199,502.031799 304.873260,502.014404   C299.704803,502.042816 295.382385,502.063019 291.059998,502.083221   C290.285065,502.057220 289.510101,502.031219 288.120941,502.027374   C287.506714,502.049530 287.054199,502.115967 287.054199,502.115967   C286.700134,504.139771 286.038177,506.163300 286.036560,508.187378   C285.980347,578.419739 285.988525,648.652100 285.971832,718.884521   C285.971405,720.703003 285.795837,722.521423 285.418823,724.637695   C285.093414,689.446411 285.033813,653.957275 285.013519,618.468140   C284.992188,581.144043 285.008514,543.819885 285.008392,506.495758   C285.008362,504.701752 285.008362,502.907715 285.008362,500.830750   C287.039703,500.830750 288.661987,500.830750 290.284271,500.830750   C432.915680,500.831543 575.547058,500.828491 718.178467,500.882874   C719.747986,500.883453 721.317261,501.633820 722.604309,502.318237   C721.855347,502.441437 721.388794,502.280579 720.702515,502.086731   C720.482910,502.053711 720.039673,502.083801 720.039673,502.083801   C713.986694,502.058624 707.933655,502.033447 701.004639,502.018524   C698.771179,502.046631 697.413696,502.064484 696.056213,502.082336  z"></path>
<path fill="#00050E" opacity="1.000000" stroke="none" d=" M285.081299,421.516937   C285.422394,422.803009 285.945251,424.550018 285.953308,426.299438   C286.020142,440.794647 285.991791,455.290253 285.992218,469.785767   C285.992249,471.591278 285.992218,473.396790 285.992218,475.994324   C430.951019,475.994324 575.493591,475.994324 720.806152,475.992004   C721.982544,476.005157 722.388916,476.020691 722.795349,476.036194   C721.690796,476.371155 720.586426,476.999298 719.481750,476.999634   C575.440430,477.045105 431.399078,477.044403 287.357758,477.046051   C286.726837,477.046082 286.095947,477.046082 285.024445,477.046082   C285.024445,458.505066 285.024445,440.242035 285.081299,421.516937  z"></path>
<path fill="#23333E" opacity="1.000000" stroke="none" d=" M720.998718,720.998779   C720.995911,668.968262 721.043518,616.937744 720.960510,564.907410   C720.934448,548.598999 720.513611,532.291504 720.375000,515.982727   C720.346130,512.581543 720.765930,509.176575 721.288757,505.389954   C722.002014,505.001892 722.405457,504.997192 722.808960,504.992493   C722.871094,525.117065 722.978882,545.241699 722.986328,565.366272   C723.005310,616.937500 722.979736,668.508728 722.592468,720.540649   C721.808228,721.000427 721.403442,720.999573 720.998718,720.998779  z"></path>
<path fill="#45ADF0" opacity="1.000000" stroke="none" d=" M295.195679,371.182007   C297.369598,370.468567 300.015167,369.097809 302.661743,369.095795   C436.452240,368.993408 570.242798,368.996490 704.033264,369.077057   C707.281250,369.079010 710.528503,370.084076 714.112854,370.894714   C650.151917,370.840637 585.854553,370.378754 521.556519,370.222504   C453.404602,370.056885 385.251953,370.152618 317.099731,370.222778   C309.955475,370.230133 302.811768,370.835419 295.195679,371.182007  z"></path>
<path fill="#1A2B38" opacity="1.000000" stroke="none" d=" M722.869995,475.570496   C722.388916,476.020691 721.982544,476.005157 721.271851,475.960754   C720.977661,458.135681 721.031555,440.339355 720.954651,422.543579   C720.941833,419.593140 720.358093,416.645142 720.084351,413.254089   C721.082458,416.423706 722.797607,420.022919 722.856323,423.648926   C723.133728,440.796844 722.958496,457.952087 722.869995,475.570496  z"></path>
<path fill="#5AB5F0" opacity="1.000000" stroke="none" d=" M536.933777,224.659485   C526.536865,224.641800 515.917114,224.011948 505.304443,224.113800   C498.056091,224.183350 490.820648,225.313873 483.572266,225.877762   C481.941711,226.004623 480.281219,225.747177 478.353149,225.397186   C490.261169,224.169846 502.437927,222.766220 514.644592,222.421051   C521.976929,222.213730 529.355957,223.657440 536.933777,224.659485  z"></path>
<path fill="#23333E" opacity="1.000000" stroke="none" d=" M719.764771,735.096619   C719.922119,732.148193 720.304749,728.937317 721.140259,725.364990   C721.990295,724.999695 722.387329,724.995850 722.784424,724.992004   C721.852966,728.272766 720.921509,731.553467 719.764771,735.096619  z"></path>
<path fill="#5AB5F0" opacity="1.000000" stroke="none" d=" M135.091064,589.467285   C138.800476,592.361084 136.478241,596.514587 136.416885,600.617798   C135.781921,597.244629 135.414993,593.574524 135.091064,589.467285  z"></path>
<path fill="#5AB5F0" opacity="1.000000" stroke="none" d=" M135.058563,569.519592   C135.284698,574.500000 135.459335,579.940796 135.343140,585.674683   C135.037247,580.638550 135.022171,575.309265 135.058563,569.519592  z"></path>
<path fill="#23333E" opacity="1.000000" stroke="none" d=" M713.437927,742.076050   C714.582275,740.483398 716.043884,738.791931 717.867676,737.138855   C716.738281,738.777222 715.246704,740.377258 713.437927,742.076050  z"></path>
<path fill="#5AB5F0" opacity="1.000000" stroke="none" d=" M251.738388,735.404785   C252.090668,732.946960 252.726089,730.770325 253.636292,728.322327   C254.144638,730.508667 254.378220,732.966431 254.652771,735.855164   C253.769943,735.798462 252.895752,735.742249 251.738388,735.404785  z"></path>
<path fill="#5AB5F0" opacity="1.000000" stroke="none" d=" M754.005371,728.420532   C754.001038,730.288086 753.944702,732.544373 753.531982,734.880981   C753.434875,732.910645 753.694153,730.859985 754.005371,728.420532  z"></path>
<path fill="#5AB5F0" opacity="1.000000" stroke="none" d=" M136.243469,602.422546   C136.727203,603.836487 137.191574,605.620300 137.406174,607.658569   C136.845627,606.206177 136.534851,604.499329 136.243469,602.422546  z"></path>
<path fill="#1A2B38" opacity="1.000000" stroke="none" d=" M722.869995,724.599243   C722.387329,724.995850 721.990295,724.999695 721.295288,725.003052   C720.997803,723.934998 720.998230,722.867493 720.998657,721.399353   C721.403442,720.999573 721.808228,721.000427 722.516479,721.004272   C722.865173,722.073608 722.910339,723.140015 722.869995,724.599243  z"></path>
<path fill="#5AB5F0" opacity="1.000000" stroke="none" d=" M543.972412,225.688019   C542.612061,225.829376 541.056519,225.702744 539.248596,225.285202   C540.589844,225.136200 542.183533,225.278107 543.972412,225.688019  z"></path>
<path fill="#1A2B38" opacity="1.000000" stroke="none" d=" M288.524536,410.954407   C288.300049,412.094879 287.785278,413.421783 286.889587,414.819763   C287.083862,413.640839 287.659088,412.390839 288.524536,410.954407  z"></path>
<path fill="#5AB5F0" opacity="1.000000" stroke="none" d=" M753.050537,737.388550   C754.756836,737.104614 756.578247,737.227722 758.667847,737.618896   C757.012634,737.856567 755.089172,737.826111 753.050537,737.388550  z"></path>
<path fill="#5AB5F0" opacity="1.000000" stroke="none" d=" M548.646606,226.047729   C547.761658,226.255753 546.581665,226.393326 545.202576,226.268646   C546.119507,225.996689 547.235596,225.986984 548.646606,226.047729  z"></path>
<path fill="#23333E" opacity="1.000000" stroke="none" d=" M292.994019,741.242004   C293.839783,741.449402 294.862396,741.929321 295.894104,742.781738   C294.992371,742.607727 294.081635,742.061157 292.994019,741.242004  z"></path>
<path fill="#1A2B38" opacity="1.000000" stroke="none" d=" M722.880432,504.643066   C722.405457,504.997192 722.002014,505.001892 721.295654,505.006378   C720.987000,504.551453 720.981201,504.096710 720.967590,503.090851   C720.959778,502.539703 720.922180,502.119720 720.922180,502.119720   C721.388794,502.280579 721.855347,502.441437 722.521606,502.752197   C722.798096,503.365997 722.875000,503.829834 722.880432,504.643066  z"></path>
<path fill="#5AB5F0" opacity="1.000000" stroke="none" d=" M753.584106,414.441406   C753.880493,415.200775 754.243225,416.350586 754.342773,417.728577   C753.936646,416.915100 753.793579,415.873474 753.584106,414.441406  z"></path>
<path fill="#1A2B38" opacity="1.000000" stroke="none" d=" M293.586487,405.872681   C293.330505,406.437592 292.793976,407.078094 291.904663,407.575684   C292.136597,406.937927 292.721283,406.443115 293.586487,405.872681  z"></path>
<path fill="#5AB5F0" opacity="1.000000" stroke="none" d=" M752.520996,409.410065   C752.818420,409.875122 753.208679,410.702026 753.344116,411.741058   C752.930725,411.226105 752.772278,410.498993 752.520996,409.410065  z"></path>
<path fill="#23333E" opacity="1.000000" stroke="none" d=" M718.443726,737.086060   C718.401062,736.624939 718.612549,736.027161 719.170349,735.430481   C719.243774,735.937500 718.970825,736.443481 718.443726,737.086060  z"></path>
<path fill="#1A2B38" opacity="1.000000" stroke="none" d=" M720.144897,412.621429   C719.828247,412.462799 719.453613,412.007080 719.053772,411.227997   C719.381287,411.377899 719.734009,411.851135 720.144897,412.621429  z"></path>
<path fill="#1A2B38" opacity="1.000000" stroke="none" d=" M715.056030,406.602722   C714.595886,406.630615 713.998047,406.400940 713.403198,405.820770   C713.910278,405.761932 714.414246,406.053558 715.056030,406.602722  z"></path>
<path fill="#1A2B38" opacity="1.000000" stroke="none" d=" M716.160156,407.586670   C715.943481,407.671295 715.608704,407.504425 715.186523,407.060669   C715.413452,406.967621 715.727783,407.151428 716.160156,407.586670  z"></path>
<path fill="#1A2B38" opacity="1.000000" stroke="none" d=" M713.254395,405.322571   C713.050293,405.480164 712.677856,405.431671 712.185608,405.111511   C712.405884,404.932037 712.745911,405.024261 713.254395,405.322571  z"></path>
<path fill="#1A2B38" opacity="1.000000" stroke="none" d=" M291.276855,407.635864   C291.369568,407.881958 291.254150,408.239471 290.822998,408.544861   C290.617645,408.186401 290.804840,407.937958 291.276855,407.635864  z"></path>
<path fill="#1A2B38" opacity="1.000000" stroke="none" d=" M717.235107,408.622955   C717.016785,408.693665 716.661682,408.501007 716.218750,408.008179   C716.453369,407.925171 716.775879,408.142365 717.235107,408.622955  z"></path>
<path fill="#1A2B38" opacity="1.000000" stroke="none" d=" M290.252625,408.672638   C290.373901,408.900208 290.285645,409.267578 289.883911,409.663025   C289.727966,409.398193 289.885529,409.105316 290.252625,408.672638  z"></path>
<path fill="#1A2B38" opacity="1.000000" stroke="none" d=" M289.428650,409.733276   C289.550598,409.962006 289.431915,410.326508 289.023926,410.778442   C288.885742,410.533630 289.036896,410.201324 289.428650,409.733276  z"></path>
<path fill="#FDFDFD" opacity="1.000000" stroke="none" d=" M621.982239,640.829956   C639.159790,646.195801 653.899292,655.154541 664.582214,669.978516   C666.315002,672.382935 667.612793,675.101013 669.460327,678.265442   C671.758240,685.307556 674.324890,691.650085 675.479797,698.240051   C676.592468,704.588928 678.497375,711.328186 674.498352,717.563416   C674.630981,717.708679 674.763550,717.853882 674.454529,718.000122   C672.625061,719.302246 671.237244,720.603210 669.849365,721.904114   C669.849365,721.904114 669.929932,721.943054 669.691895,721.940918   C669.453857,721.938782 669.032532,722.166992 669.032532,722.166992   C669.032532,722.166992 668.553101,722.160645 668.553101,722.160645   C668.553101,722.160645 668.148071,722.417236 667.593750,722.678955   C660.058228,722.953918 653.076965,722.973938 646.095703,722.979370   C593.735291,723.020081 541.374878,723.057922 488.696655,722.969543   C486.944366,722.151978 485.509918,721.461487 484.075500,720.770996   C483.351196,719.907104 482.626892,719.043213 481.543518,717.739746   C480.838867,716.795471 480.493347,716.290833 480.147797,715.786133   C480.147797,715.786133 480.106873,715.902710 480.111389,715.492188   C480.350800,708.060486 480.585693,701.039429 480.820618,694.018311   C485.554626,671.146240 500.156525,656.383728 520.263733,646.233215   C525.927429,643.374146 531.312378,639.545715 538.854370,640.151428   C540.662964,640.934204 541.771423,641.560791 542.879822,642.187439   C542.879822,642.187439 542.903259,642.083618 543.062134,642.390442   C564.639832,653.702759 586.278687,654.573303 608.163818,644.107849   C608.163818,644.107849 608.070679,644.071045 608.372559,644.073853   C609.180420,643.761841 609.686401,643.447021 610.192383,643.132263   C610.192383,643.132263 610.085693,643.090454 610.384766,643.097656   C611.172058,642.767029 611.660278,642.429138 612.148438,642.091248   C612.148438,642.091248 612.069885,642.058472 612.330444,642.060425   C612.865051,641.854431 613.139221,641.646423 613.413330,641.438354   C613.413330,641.438354 613.130066,641.467773 613.615601,641.331421   C616.728210,641.073364 619.355225,640.951660 621.982239,640.829956  z"></path>
<path fill="#FDFDFD" opacity="1.000000" stroke="none" d=" M525.777466,564.021729   C530.262268,548.249329 539.504395,534.812622 554.061768,528.633972   C577.823242,518.548706 603.007141,521.589905 620.514282,544.591980   C622.843018,547.651672 624.588684,551.155151 626.807922,555.120728   C628.355774,561.474670 630.192444,567.097351 630.936951,572.861084   C632.286255,583.306885 629.884521,593.294250 625.785583,602.901978   C625.785583,602.901978 625.897400,602.904846 625.625671,603.030396   C625.145142,603.731262 624.936340,604.306519 624.727539,604.881775   C624.727539,604.881775 624.859680,604.893738 624.570923,605.002686   C623.820435,606.055298 623.358643,606.998962 622.896912,607.942566   C622.896912,607.942566 622.984192,607.957703 622.706482,608.107300   C621.914856,609.149780 621.400940,610.042786 620.886963,610.935791   C620.887024,610.935791 620.975098,610.956970 620.682861,611.092529   C620.077881,611.784668 619.765198,612.341187 619.452515,612.897766   C617.098206,615.560303 614.743896,618.222778 611.883240,621.243103   C610.543518,622.054688 609.710144,622.508362 608.876709,622.962158   C608.547363,622.923462 608.272034,623.027771 607.714355,623.581909   C607.104614,624.123291 606.831299,624.357727 606.557983,624.592163   C606.557983,624.592224 606.679688,624.536072 606.327148,624.643616   C604.922119,625.458740 603.869568,626.166382 602.817017,626.874023   C602.817017,626.874023 602.920227,626.914246 602.619507,626.911377   C601.819641,627.233093 601.320618,627.557617 600.821533,627.882141   C600.821533,627.882141 600.907593,627.923889 600.527710,627.929016   C594.965576,629.359985 589.856934,631.468506 584.582275,632.037292   C578.131348,632.732849 571.541199,632.137573 565.011292,632.100464   C553.788025,628.534302 544.450134,622.158813 536.440674,612.760315   C535.378723,611.510132 534.722717,610.698608 534.066711,609.887024   C534.066711,609.887024 534.017456,609.960510 533.980957,609.647827   C533.327026,608.508362 532.709656,607.681458 532.092224,606.854614   C532.092224,606.854614 532.042725,606.935852 532.014282,606.574585   C524.260437,592.981689 523.179871,578.772339 525.777466,564.021729  z"></path>
<path fill="#FDFDFD" opacity="1.000000" stroke="none" d=" M327.107758,556.477661   C323.541382,550.523560 324.689117,545.052063 330.552643,540.054932   C332.892914,538.060486 339.674072,538.550110 343.095001,541.396790   C347.016510,544.659973 350.620056,548.305298 354.709259,552.035950   C355.056793,552.287292 355.285034,552.384705 355.285034,552.384705   C355.285034,552.384705 355.406250,552.503540 355.580414,552.744934   C355.938385,553.216614 356.168243,553.383301 356.444153,553.486450   C356.444153,553.486450 356.545502,553.471985 356.647461,553.715088   C356.937988,554.201660 357.176392,554.377441 357.464630,554.485596   C357.464630,554.485596 357.611237,554.413330 357.689880,554.683472   C357.974487,555.205200 358.233093,555.377747 358.544342,555.471375   C358.656219,555.316711 358.768097,555.162048 358.824524,555.458252   C358.979004,556.180603 359.249023,556.363403 359.579071,556.457458   C359.579071,556.457458 359.876526,556.074829 359.831909,556.481201   C360.072357,557.069214 360.357452,557.250854 360.642578,557.432495   C360.642578,557.432495 360.716339,557.286560 360.761108,557.566040   C361.100769,558.032593 361.395630,558.219604 361.690491,558.406677   C361.690491,558.406677 361.743683,558.257874 361.779602,558.533569   C362.107239,559.007446 362.398987,559.205750 362.690735,559.403992   C362.690735,559.403992 362.763123,559.219788 362.822998,559.553772   C363.492493,560.369690 364.102081,560.851685 364.711670,561.333618   C364.711670,561.333618 364.770477,561.212585 364.817322,561.483398   C365.165131,561.953674 365.466034,562.153137 365.766937,562.352539   C365.766937,562.352539 365.807526,562.193787 365.839325,562.469299   C366.174530,562.943054 366.477905,563.141296 366.781311,563.339539   C366.781311,563.339539 366.819641,563.182190 366.852081,563.456421   C367.188965,563.928101 367.493408,564.125549 367.797852,564.322937   C367.797852,564.322937 367.833679,564.168640 367.867920,564.441772   C368.208832,564.910645 368.515533,565.106323 368.822235,565.302002   C368.822235,565.302002 368.853333,565.147522 368.889221,565.417847   C369.232117,565.884216 369.539093,566.080200 369.846100,566.276245   C369.846100,566.276245 369.876984,566.116333 369.914673,566.394958   C370.266449,566.896423 370.580505,567.119263 370.894562,567.342102   C375.031708,571.484131 379.168823,575.626221 383.721497,580.143494   C384.555237,580.856323 384.973450,581.193970 385.391693,581.531555   C385.391693,581.531555 385.503021,581.527893 385.627838,581.760498   C385.931854,582.218567 386.156006,582.382568 386.425171,582.485107   C386.425171,582.485107 386.529114,582.485596 386.646973,582.729858   C386.962097,583.214966 387.208313,583.385132 387.503479,583.484436   C387.656921,583.383301 387.810394,583.282227 387.864624,583.556396   C387.972321,584.193542 388.235474,584.373108 388.554840,584.470337   C388.636322,584.303589 388.717804,584.136902 388.768738,584.429443   C388.921967,585.160645 389.166077,585.358032 389.470520,585.480713   C389.470520,585.480713 389.849030,585.505920 389.801483,585.749451   C390.148926,586.364685 390.543884,586.736328 390.938873,587.108032   C390.938873,587.108032 390.973572,587.034546 391.008423,587.301270   C391.315399,587.798401 391.587494,588.028931 391.859589,588.259399   C391.859589,588.259399 391.886169,588.111328 391.913025,588.517822   C394.130798,593.482971 393.211304,597.776123 390.828064,601.944275   C388.627808,604.067261 386.427551,606.190186 383.863953,608.725830   C383.159882,609.532104 382.819122,609.925720 382.478363,610.319275   C382.478363,610.319275 382.403992,610.452332 382.190826,610.596680   C381.779602,610.893066 381.633514,611.084778 381.539368,611.316101   C381.539368,611.316101 381.448547,611.425476 381.175171,611.609253   C380.579407,612.188782 380.256989,612.584595 379.934570,612.980469   C378.692169,614.095703 377.449768,615.210999 375.823181,616.749817   C374.937592,617.775757 374.436127,618.378113 373.934631,618.980469   C371.697571,621.092529 369.460510,623.204651 366.863525,625.738159   C366.160339,626.557861 365.817108,626.956238 365.473877,627.354614   C365.473877,627.354614 365.439758,627.476807 365.219055,627.605225   C364.788818,627.892212 364.633148,628.092712 364.531403,628.335083   C364.531403,628.335083 364.456116,628.442688 364.184753,628.615723   C363.591644,629.183594 363.269836,629.578491 362.948059,629.973328   C362.948029,629.973328 362.999390,630.000000 362.746521,630.078674   C362.155396,630.553528 361.817169,630.949707 361.478943,631.345825   C361.478973,631.345886 361.433533,631.470703 361.213348,631.604980   C360.784760,631.898743 360.630981,632.100037 360.531830,632.343018   C360.531830,632.343018 360.466827,632.450562 360.194366,632.619568   C359.593597,633.186035 359.265259,633.583496 358.936890,633.980957   C357.697876,635.103577 356.458832,636.226196 354.861145,637.746216   C354.161987,638.535767 353.821472,638.927979 353.480957,639.320190   C353.480988,639.320190 353.405701,639.452881 353.192383,639.596313   C352.780731,639.891235 352.634827,640.082581 352.541321,640.313904   C352.541321,640.313904 352.418854,640.436157 352.198364,640.589111   C351.778687,640.895203 351.632355,641.088379 351.538818,641.321533   C351.538818,641.321533 351.453156,641.430725 351.179749,641.611389   C350.583832,642.188599 350.261322,642.585144 349.938812,642.981628   C348.027649,644.719360 346.116455,646.457092 343.729919,648.611450   C339.862335,649.969360 336.470184,650.910522 333.078003,651.851685   C333.078003,651.851685 333.056000,651.941284 332.948120,651.638550   C332.229950,651.237488 331.619720,651.139221 331.009460,651.040955   C323.899200,646.965881 322.569519,638.024170 328.482697,631.965759   C336.124695,624.136108 344.035645,616.569031 352.220551,608.466309   C352.826935,607.737244 353.043579,607.430725 353.260193,607.124207   C353.260193,607.124207 353.110992,607.104431 353.378693,607.069519   C353.849030,606.735046 354.051697,606.435486 354.254333,606.135925   C354.254333,606.135925 354.112488,606.111755 354.379395,606.074219   C354.849396,605.737122 355.052521,605.437500 355.255676,605.137878   C355.255646,605.137878 355.113342,605.113464 355.381409,605.078003   C355.857483,604.746948 356.065491,604.451355 356.273438,604.155762   C356.273438,604.155762 356.127380,604.128601 356.397736,604.094971   C356.876953,603.765747 357.085846,603.470215 357.294678,603.174622   C357.294678,603.174622 357.143372,603.144165 357.414856,603.110840   C357.890045,602.776978 358.093750,602.476379 358.297455,602.175842   C358.297455,602.175842 358.145752,602.144775 358.417419,602.112549   C358.892303,601.779785 359.095520,601.479248 359.298706,601.178711   C359.298706,601.178711 359.147736,601.147400 359.419312,601.114075   C359.893616,600.780029 360.096344,600.479370 360.299133,600.178711   C360.299133,600.178711 360.146545,600.147644 360.419739,600.119507   C360.905823,599.799744 361.118683,599.508179 361.331573,599.216614   C361.331573,599.216614 361.177246,599.179565 361.452606,599.149780   C361.934235,598.823792 362.140533,598.527710 362.346802,598.231567   C362.346802,598.231567 362.191650,598.191406 362.466614,598.158081   C362.939667,597.821960 363.137756,597.519104 363.335876,597.216248   C363.335876,597.216248 363.206940,597.184326 363.529358,597.105347   C365.447113,595.687134 367.196411,594.356018 364.076508,592.767883   C360.620728,589.252258 357.164917,585.736572 353.285828,581.855469   C352.453705,581.149902 352.044861,580.809875 351.636017,580.469788   C351.636017,580.469788 351.515503,580.442383 351.388123,580.220215   C351.098785,579.786438 350.894470,579.630310 350.647827,579.529602   C350.647827,579.529602 350.531982,579.452576 350.388275,579.221680   C350.070953,578.774109 349.854340,578.616638 349.594788,578.518188   C349.594788,578.518188 349.487701,578.498962 349.364197,578.258423   C349.051392,577.783325 348.815063,577.614685 348.531769,577.511841   C348.531769,577.511841 348.333588,577.630493 348.293823,577.343750   C348.064453,576.807495 347.823395,576.626648 347.530853,576.514465   C347.530853,576.514465 347.363525,576.594299 347.306763,576.323608   C347.058716,575.804077 346.815826,575.625366 346.521393,575.516663   C346.521393,575.516663 346.284302,575.669678 346.260895,575.362854   C346.035980,574.800903 345.780487,574.623596 345.471069,574.523987   C345.314301,574.642029 345.157501,574.760071 345.117249,574.481201   C345.026276,573.815247 344.759766,573.632080 344.434235,573.534729   C344.337738,573.682434 344.241241,573.830139 344.189972,573.542847   C344.030975,572.827881 343.763153,572.637207 343.431763,572.535889   C343.329254,572.675964 343.226715,572.816101 343.169739,572.530762   C342.931030,571.922668 342.646790,571.740112 342.362518,571.557556   C342.362518,571.557556 342.300659,571.697632 342.253357,571.423950   C341.916107,570.957520 341.626129,570.764771 341.336121,570.572021   C341.336121,570.572021 341.278961,570.719971 341.235474,570.444214   C340.895233,569.976135 340.598450,569.783875 340.301697,569.591553   C340.301697,569.591553 340.241058,569.764160 340.156036,569.415405   C338.466583,567.609802 336.862152,566.152954 335.257721,564.696167   C335.257721,564.696167 335.205963,564.817932 335.160370,564.546265   C334.813202,564.071960 334.511627,563.869263 334.210022,563.666626   C334.210022,563.666626 334.173645,563.826111 334.141785,563.551575   C333.805267,563.077576 333.500641,562.878174 333.196014,562.678711   C333.196014,562.678711 333.161377,562.836182 333.127136,562.563721   C332.784088,562.096741 332.475281,561.902161 332.166473,561.707581   C332.166473,561.707581 332.136841,561.861084 332.105133,561.589783   C331.772034,561.115051 331.470642,560.911560 331.169250,560.708069   C331.169250,560.708069 331.139252,560.859314 331.104126,560.589111   C330.763824,560.120911 330.458618,559.922913 330.153442,559.724915   C330.153442,559.724915 330.126312,559.872925 330.093750,559.603394   C329.764862,559.126831 329.468536,558.919739 329.172241,558.712646   C329.172241,558.712646 329.141937,558.858093 329.105164,558.588013   C328.768005,558.115540 328.467621,557.913147 328.167206,557.710815   C328.167206,557.710815 328.131470,557.883301 328.101746,557.574951   C327.750610,557.003662 327.429199,556.740662 327.107758,556.477661  z"></path>
<path fill="#FBFBFC" opacity="1.000000" stroke="none" d=" M404.041870,644.429199   C394.071381,638.553223 393.838684,629.146423 404.229614,622.769775   C411.050232,622.357178 417.155212,622.083557 423.257965,622.127441   C432.167847,622.191528 441.076111,622.483643 449.985046,622.678589   C460.389709,628.909912 460.602875,638.233154 449.996826,644.495483   C442.092743,644.844727 434.668640,645.026367 427.246399,644.968933   C419.510620,644.909119 411.776642,644.618774 404.041870,644.429199  z"></path>
<path fill="#00050E" opacity="1.000000" stroke="none" d=" M489.014496,723.096680   C541.374878,723.057922 593.735291,723.020081 646.095703,722.979370   C653.076965,722.973938 660.058228,722.953918 667.504639,722.901428   C666.117554,723.235596 664.265625,723.933411 662.413086,723.935303   C604.923645,723.994141 547.434143,723.984924 489.458984,723.765381   C488.973297,723.544556 489.014496,723.096680 489.014496,723.096680  z"></path>
<path fill="#1A2B38" opacity="1.000000" stroke="none" d=" M607.752930,644.072632   C586.278687,654.573303 564.639832,653.702759 543.015625,642.416260   C544.685974,642.657654 546.614014,643.041504 548.428955,643.725342   C559.037109,647.722168 569.951538,650.850464 581.308411,649.761169   C588.792847,649.043335 596.099854,646.487915 603.490784,644.774475   C604.763123,644.479431 606.057739,644.280579 607.752930,644.072632  z"></path>
<path fill="#1A2B38" opacity="1.000000" stroke="none" d=" M626.139404,602.821655   C629.884521,593.294250 632.286255,583.306885 630.936951,572.861084   C630.192444,567.097351 628.355774,561.474670 627.050354,555.399658   C628.501099,558.176880 630.175537,561.254333 631.278015,564.524597   C635.380981,576.695435 632.920654,588.429382 628.470886,599.951721   C628.072815,600.982422 627.164490,601.816101 626.139404,602.821655  z"></path>
<path fill="#1A2B38" opacity="1.000000" stroke="none" d=" M674.885620,717.596558   C678.497375,711.328186 676.592468,704.588928 675.479797,698.240051   C674.324890,691.650085 671.758240,685.307556 669.714355,678.483154   C670.921265,679.513000 673.033142,680.736450 673.391602,682.349548   C675.575500,692.177551 679.986267,701.727600 677.952515,712.154541   C677.576843,714.080566 676.191956,715.809631 674.885620,717.596558  z"></path>
<path fill="#1A2B38" opacity="1.000000" stroke="none" d=" M525.418701,564.122803   C523.179871,578.772339 524.260437,592.981689 532.061279,606.567078   C531.536987,606.719177 530.603210,606.696045 530.386169,606.289917   C523.261230,592.955994 520.371155,579.062988 525.418701,564.122803  z"></path>
<path fill="#1A2B38" opacity="1.000000" stroke="none" d=" M565.105225,632.487061   C571.541199,632.137573 578.131348,632.732849 584.582275,632.037292   C589.856934,631.468506 594.965576,629.359985 600.522827,627.881470   C597.503906,629.718994 594.310913,632.290771 590.675598,633.362427   C582.241455,635.848633 573.670410,634.481628 565.105225,632.487061  z"></path>
<path fill="#00050E" opacity="1.000000" stroke="none" d=" M449.777863,622.287109   C441.076111,622.483643 432.167847,622.191528 423.257965,622.127441   C417.155212,622.083557 411.050232,622.357178 404.480591,622.585327   C405.090942,622.132996 406.163208,621.114990 407.243408,621.106567   C420.614685,621.001709 433.987213,621.030457 447.359131,621.084351   C448.097382,621.087341 448.833527,621.613281 449.777863,622.287109  z"></path>
<path fill="#00050E" opacity="1.000000" stroke="none" d=" M404.250977,644.811035   C411.776642,644.618774 419.510620,644.909119 427.246399,644.968933   C434.668640,645.026367 442.092743,644.844727 450.024353,644.837280   C449.297882,645.263794 448.064667,645.925110 446.827942,645.931824   C433.454742,646.004517 420.080933,645.987000 406.707489,645.939148   C405.957458,645.936462 405.209167,645.452637 404.250977,644.811035  z"></path>
<path fill="#1A2B38" opacity="1.000000" stroke="none" d=" M480.450134,694.107849   C480.585693,701.039429 480.350800,708.060486 480.173157,715.490784   C479.544922,715.261108 478.227844,714.576111 478.270630,713.990479   C478.753204,707.383972 479.444427,700.792725 480.450134,694.107849  z"></path>
<path fill="#1A2B38" opacity="1.000000" stroke="none" d=" M391.202271,601.929199   C393.211304,597.776123 394.130798,593.482971 391.838623,588.529053   C396.195282,591.752686 396.134064,596.995300 391.202271,601.929199  z"></path>
<path fill="#1A2B38" opacity="1.000000" stroke="none" d=" M333.111145,652.232300   C336.470184,650.910522 339.862335,649.969360 343.590515,648.902344   C341.283020,653.520142 337.294342,654.939270 333.111145,652.232300  z"></path>
<path fill="#1A2B38" opacity="1.000000" stroke="none" d=" M621.915039,640.487549   C619.355225,640.951660 616.728210,641.073364 613.757690,641.341675   C615.504272,636.512756 618.597595,637.836060 621.915039,640.487549  z"></path>
<path fill="#394952" opacity="1.000000" stroke="none" d=" M511.357330,502.368591   C515.383972,502.068329 519.703918,502.047272 524.481018,502.055969   C520.509033,502.273102 516.079834,502.460480 511.357330,502.368591  z"></path>
<path fill="#394952" opacity="1.000000" stroke="none" d=" M291.352905,502.363831   C295.382385,502.063019 299.704803,502.042816 304.484894,502.051300   C300.510345,502.268158 296.078094,502.456299 291.352905,502.363831  z"></path>
<path fill="#1A2B38" opacity="1.000000" stroke="none" d=" M335.193298,565.063721   C336.862152,566.152954 338.466583,567.609802 340.222534,569.352539   C338.625671,568.236084 336.877289,566.833679 335.193298,565.063721  z"></path>
<path fill="#394952" opacity="1.000000" stroke="none" d=" M485.347473,502.363220   C488.387695,502.066193 491.713318,502.045563 495.489319,502.054382   C492.504089,502.269104 489.068481,502.454376 485.347473,502.363220  z"></path>
<path fill="#1A2B38" opacity="1.000000" stroke="none" d=" M670.236694,721.931030   C671.237244,720.603210 672.625061,719.302246 674.246460,717.790894   C675.151062,720.763062 673.215576,721.649536 670.236694,721.931030  z"></path>
<path fill="#394952" opacity="1.000000" stroke="none" d=" M527.345642,502.361359   C530.386230,502.064911 533.712097,502.045319 537.488281,502.055725   C534.502686,502.269867 531.066772,502.454071 527.345642,502.361359  z"></path>
<path fill="#394952" opacity="1.000000" stroke="none" d=" M656.341064,502.359436   C659.055298,502.065643 662.050293,502.046997 665.491211,502.058105   C662.832092,502.270081 659.726990,502.452301 656.341064,502.359436  z"></path>
<path fill="#394952" opacity="1.000000" stroke="none" d=" M668.344116,502.362305   C671.057312,502.067902 674.051697,502.047546 677.492065,502.056824   C674.833862,502.269745 671.729553,502.453033 668.344116,502.362305  z"></path>
<path fill="#1A2B38" opacity="1.000000" stroke="none" d=" M488.696655,722.969604   C489.014496,723.096680 488.973297,723.544556 488.990814,723.768677   C487.367065,723.164124 485.725800,722.335388 484.080017,721.138794   C485.509918,721.461487 486.944366,722.151978 488.696655,722.969604  z"></path>
<path fill="#1A2B38" opacity="1.000000" stroke="none" d=" M542.903809,641.849121   C541.771423,641.560791 540.662964,640.934204 539.287842,640.125305   C540.323303,640.465637 541.625549,640.988220 542.903809,641.849121  z"></path>
<path fill="#1A2B38" opacity="1.000000" stroke="none" d=" M364.008484,593.152588   C367.196411,594.356018 365.447113,595.687134 363.555847,597.166260   C363.486816,596.049805 363.713623,594.793518 364.008484,593.152588  z"></path>
<path fill="#394952" opacity="1.000000" stroke="none" d=" M383.312500,502.346497   C385.065643,502.061707 387.074982,502.043365 389.512817,502.054169   C387.817108,502.259857 385.692902,502.436432 383.312500,502.346497  z"></path>
<path fill="#394952" opacity="1.000000" stroke="none" d=" M350.314514,502.348267   C352.067017,502.063110 354.076019,502.043884 356.513550,502.053467   C354.818390,502.259583 352.694702,502.436859 350.314514,502.348267  z"></path>
<path fill="#394952" opacity="1.000000" stroke="none" d=" M330.321228,502.355591   C332.071014,502.070007 334.077850,502.048248 336.512970,502.055023   C334.820251,502.262177 332.699310,502.440796 330.321228,502.355591  z"></path>
<path fill="#1A2B38" opacity="1.000000" stroke="none" d=" M603.202393,626.911621   C603.869568,626.166382 604.922119,625.458740 606.265503,624.617371   C605.566833,625.305481 604.577332,626.127380 603.202393,626.911621  z"></path>
<path fill="#394952" opacity="1.000000" stroke="none" d=" M410.303711,502.346893   C411.740967,502.066956 413.422180,502.047394 415.521729,502.057220   C414.142578,502.260162 412.345093,502.433716 410.303711,502.346893  z"></path>
<path fill="#394952" opacity="1.000000" stroke="none" d=" M308.283142,502.338440   C309.414948,502.062927 310.773926,502.042877 312.539124,502.051636   C311.467010,502.251648 309.988647,502.422791 308.283142,502.338440  z"></path>
<path fill="#1A2B38" opacity="1.000000" stroke="none" d=" M623.270203,607.922119   C623.358643,606.998962 623.820435,606.055298 624.550049,604.939697   C624.426453,605.812439 624.034973,606.857056 623.270203,607.922119  z"></path>
<path fill="#394952" opacity="1.000000" stroke="none" d=" M394.285675,502.339844   C395.416107,502.065186 396.774109,502.044922 398.537964,502.053436   C397.466949,502.252930 395.990082,502.423584 394.285675,502.339844  z"></path>
<path fill="#1A2B38" opacity="1.000000" stroke="none" d=" M609.205444,622.969971   C609.710144,622.508362 610.543518,622.054688 611.668823,621.536621   C611.151855,621.974060 610.343018,622.475891 609.205444,622.969971  z"></path>
<path fill="#394952" opacity="1.000000" stroke="none" d=" M435.285950,502.341156   C436.415771,502.067200 437.772858,502.047546 439.535461,502.057556   C438.465027,502.256653 436.989105,502.426056 435.285950,502.341156  z"></path>
<path fill="#394952" opacity="1.000000" stroke="none" d=" M696.283203,502.337280   C697.413696,502.064484 698.771179,502.046631 700.534119,502.058899   C699.463074,502.256744 697.986633,502.424469 696.283203,502.337280  z"></path>
<path fill="#1A2B38" opacity="1.000000" stroke="none" d=" M532.066467,607.228516   C532.709656,607.681458 533.327026,608.508362 534.024292,609.638977   C533.416321,609.162598 532.728516,608.382507 532.066467,607.228516  z"></path>
<path fill="#394952" opacity="1.000000" stroke="none" d=" M550.286133,502.340576   C551.416260,502.066284 552.773804,502.046143 554.537109,502.054932   C553.466431,502.254150 551.990051,502.424438 550.286133,502.340576  z"></path>
<path fill="#1A2B38" opacity="1.000000" stroke="none" d=" M534.050964,610.268433   C534.722717,610.698608 535.378723,611.510132 536.146240,612.618408   C535.516907,612.160034 534.776062,611.404968 534.050964,610.268433  z"></path>
<path fill="#394952" opacity="1.000000" stroke="none" d=" M624.287903,502.342316   C625.417053,502.068329 626.773743,502.047913 628.536011,502.056946   C627.466125,502.256226 625.990845,502.426025 624.287903,502.342316  z"></path>
<path fill="#1A2B38" opacity="1.000000" stroke="none" d=" M621.253296,610.921814   C621.400940,610.042786 621.914856,609.149780 622.680298,608.071533   C622.494385,608.893433 622.056946,609.900635 621.253296,610.921814  z"></path>
<path fill="#1A2B38" opacity="1.000000" stroke="none" d=" M364.769592,560.958374   C364.102081,560.851685 363.492493,560.369690 362.752502,559.623169   C363.357208,559.766846 364.092346,560.175049 364.769592,560.958374  z"></path>
<path fill="#394952" opacity="1.000000" stroke="none" d=" M540.266357,502.336914   C541.095764,502.071198 542.131653,502.050507 543.554504,502.059570   C542.785278,502.253510 541.629028,502.417694 540.266357,502.336914  z"></path>
<path fill="#394952" opacity="1.000000" stroke="none" d=" M575.232788,502.322876   C575.778137,502.068726 576.501343,502.048706 577.584900,502.058350   C577.100403,502.244385 576.255432,502.400665 575.232788,502.322876  z"></path>
<path fill="#394952" opacity="1.000000" stroke="none" d=" M480.233154,502.323730   C480.778198,502.070557 481.500854,502.051270 482.583557,502.061798   C482.099335,502.246948 481.255005,502.402283 480.233154,502.323730  z"></path>
<path fill="#394952" opacity="1.000000" stroke="none" d=" M635.233765,502.324371   C635.778625,502.070709 636.501343,502.050659 637.584106,502.060486   C637.100037,502.246185 636.255859,502.402100 635.233765,502.324371  z"></path>
<path fill="#1A2B38" opacity="1.000000" stroke="none" d=" M374.272186,618.947510   C374.436127,618.378113 374.937592,617.775757 375.705811,617.042847   C375.518280,617.579773 375.063995,618.247192 374.272186,618.947510  z"></path>
<path fill="#1A2B38" opacity="1.000000" stroke="none" d=" M382.793396,610.419922   C382.819122,609.925720 383.159882,609.532104 383.738190,609.029907   C383.686615,609.454346 383.397522,609.987427 382.793396,610.419922  z"></path>
<path fill="#1A2B38" opacity="1.000000" stroke="none" d=" M625.045288,604.772827   C624.936340,604.306519 625.145142,603.731262 625.606018,602.978027   C625.693054,603.421387 625.528015,604.042664 625.045288,604.772827  z"></path>
<path fill="#1A2B38" opacity="1.000000" stroke="none" d=" M480.137573,716.137939   C480.493347,716.290833 480.838867,716.795471 481.297791,717.593140   C480.983215,717.420654 480.555267,716.955200 480.137573,716.137939  z"></path>
<path fill="#1A2B38" opacity="1.000000" stroke="none" d=" M331.176880,651.304749   C331.619720,651.139221 332.229950,651.237488 332.991272,651.622314   C332.542999,651.795349 331.943665,651.681946 331.176880,651.304749  z"></path>
<path fill="#1A2B38" opacity="1.000000" stroke="none" d=" M390.920654,586.769226   C390.543884,586.736328 390.148926,586.364685 389.611969,585.757568   C389.947479,585.824890 390.424927,586.127686 390.920654,586.769226  z"></path>
<path fill="#1A2B38" opacity="1.000000" stroke="none" d=" M351.550629,580.792480   C352.044861,580.809875 352.453705,581.149902 352.978424,581.730347   C352.551270,581.685547 352.008270,581.400391 351.550629,580.792480  z"></path>
<path fill="#1A2B38" opacity="1.000000" stroke="none" d=" M385.469299,581.207153   C384.973450,581.193970 384.555237,580.856323 384.027954,580.271851   C384.461578,580.310913 385.004242,580.596802 385.469299,581.207153  z"></path>
<path fill="#1A2B38" opacity="1.000000" stroke="none" d=" M361.793701,631.440063   C361.817169,630.949707 362.155396,630.553528 362.733215,630.052979   C362.684692,630.477112 362.396576,631.005676 361.793701,631.440063  z"></path>
<path fill="#1A2B38" opacity="1.000000" stroke="none" d=" M619.792725,612.802124   C619.765198,612.341187 620.077881,611.784668 620.660156,611.053345   C620.664124,611.487854 620.398499,612.097107 619.792725,612.802124  z"></path>
<path fill="#1A2B38" opacity="1.000000" stroke="none" d=" M380.266479,612.949463   C380.256989,612.584595 380.579407,612.188782 381.109711,611.636902   C381.077881,611.960083 380.838165,612.439270 380.266479,612.949463  z"></path>
<path fill="#1A2B38" opacity="1.000000" stroke="none" d=" M609.858887,643.117310   C609.686401,643.447021 609.180420,643.761841 608.368896,644.123779   C608.550659,643.814758 609.038086,643.458557 609.858887,643.117310  z"></path>
<path fill="#1A2B38" opacity="1.000000" stroke="none" d=" M611.818237,642.093262   C611.660278,642.429138 611.172058,642.767029 610.382324,643.154907   C610.549927,642.835022 611.019043,642.465149 611.818237,642.093262  z"></path>
<path fill="#1A2B38" opacity="1.000000" stroke="none" d=" M350.270447,642.950317   C350.261322,642.585144 350.583832,642.188599 351.115112,641.636719   C351.083313,641.960571 350.842712,642.439819 350.270447,642.950317  z"></path>
<path fill="#1A2B38" opacity="1.000000" stroke="none" d=" M365.792145,627.444458   C365.817108,626.956238 366.160339,626.557861 366.741028,626.044556   C366.689087,626.464478 366.399750,626.999390 365.792145,627.444458  z"></path>
<path fill="#1A2B38" opacity="1.000000" stroke="none" d=" M601.154785,627.890991   C601.320618,627.557617 601.819641,627.233093 602.622253,626.856079   C602.446533,627.169006 601.967224,627.534363 601.154785,627.890991  z"></path>
<path fill="#1A2B38" opacity="1.000000" stroke="none" d=" M353.794434,639.421570   C353.821472,638.927979 354.161987,638.535767 354.741180,638.038879   C354.689209,638.463745 354.398560,638.993347 353.794434,639.421570  z"></path>
<path fill="#1A2B38" opacity="1.000000" stroke="none" d=" M363.278625,629.943420   C363.269836,629.578491 363.591644,629.183594 364.121704,628.634094   C364.089752,628.957458 363.849487,629.435486 363.278625,629.943420  z"></path>
<path fill="#1A2B38" opacity="1.000000" stroke="none" d=" M359.268860,633.948853   C359.265259,633.583496 359.593597,633.186035 360.133087,632.633545   C360.096436,632.957947 359.848602,633.437317 359.268860,633.948853  z"></path>
<path fill="#1A2B38" opacity="1.000000" stroke="none" d=" M364.817902,628.437317   C364.633148,628.092712 364.788818,627.892212 365.163452,627.635742   C365.253845,627.871765 365.179108,628.205627 364.817902,628.437317  z"></path>
<path fill="#1A2B38" opacity="1.000000" stroke="none" d=" M351.819824,641.428955   C351.632355,641.088379 351.778687,640.895203 352.135010,640.647949   C352.228394,640.881409 352.164642,641.208862 351.819824,641.428955  z"></path>
<path fill="#1A2B38" opacity="1.000000" stroke="none" d=" M352.820862,640.424011   C352.634827,640.082581 352.780731,639.891235 353.135437,639.647034   C353.228027,639.880859 353.164246,640.207520 352.820862,640.424011  z"></path>
<path fill="#1A2B38" opacity="1.000000" stroke="none" d=" M355.422119,552.227417   C355.285034,552.384705 355.056793,552.287292 355.022858,552.167969   C355.179016,552.055847 355.369141,552.062927 355.422119,552.227417  z"></path>
<path fill="#1A2B38" opacity="1.000000" stroke="none" d=" M356.507324,553.183044   C356.168243,553.383301 355.938385,553.216614 355.641968,552.803345   C355.876373,552.706787 356.223419,552.793213 356.507324,553.183044  z"></path>
<path fill="#1A2B38" opacity="1.000000" stroke="none" d=" M357.520447,554.178467   C357.176392,554.377441 356.937988,554.201660 356.635529,553.764893   C356.873169,553.671509 357.224701,553.771423 357.520447,554.178467  z"></path>
<path fill="#1A2B38" opacity="1.000000" stroke="none" d=" M358.569336,555.160034   C358.233093,555.377747 357.974487,555.205200 357.645752,554.752319   C357.880127,554.650208 358.237244,554.749451 358.569336,555.160034  z"></path>
<path fill="#1A2B38" opacity="1.000000" stroke="none" d=" M360.818542,632.442688   C360.630981,632.100037 360.784760,631.898743 361.157654,631.641113   C361.249878,631.876160 361.177582,632.209290 360.818542,632.442688  z"></path>
<path fill="#1A2B38" opacity="1.000000" stroke="none" d=" M359.593445,556.145508   C359.249023,556.363403 358.979004,556.180603 358.652405,555.690308   C358.893097,555.592163 359.250488,555.712830 359.593445,556.145508  z"></path>
<path fill="#1A2B38" opacity="1.000000" stroke="none" d=" M360.633698,557.121704   C360.357452,557.250854 360.072357,557.069214 359.667786,556.659546   C359.907166,556.557922 360.265991,556.684448 360.633698,557.121704  z"></path>
<path fill="#1A2B38" opacity="1.000000" stroke="none" d=" M327.188538,556.800537   C327.429199,556.740662 327.750610,557.003662 328.189362,557.565796   C327.960876,557.617737 327.615082,557.370605 327.188538,556.800537  z"></path>
<path fill="#1A2B38" opacity="1.000000" stroke="none" d=" M361.665894,558.098877   C361.395630,558.219604 361.100769,558.032593 360.689789,557.605957   C360.929535,557.507996 361.285400,557.649536 361.665894,558.098877  z"></path>
<path fill="#1A2B38" opacity="1.000000" stroke="none" d=" M328.231293,557.998657   C328.467621,557.913147 328.768005,558.115540 329.177765,558.572266   C328.956543,558.646606 328.625977,558.466614 328.231293,557.998657  z"></path>
<path fill="#1A2B38" opacity="1.000000" stroke="none" d=" M362.668701,559.097046   C362.398987,559.205750 362.107239,559.007446 361.706238,558.562866   C361.946869,558.474365 362.296783,558.632202 362.668701,559.097046  z"></path>
<path fill="#1A2B38" opacity="1.000000" stroke="none" d=" M613.120728,641.387939   C613.139221,641.646423 612.865051,641.854431 612.327026,642.102844   C612.318054,641.874634 612.573059,641.606079 613.120728,641.387939  z"></path>
<path fill="#394952" opacity="1.000000" stroke="none" d=" M720.702515,502.086731   C720.922180,502.119720 720.959778,502.539703 720.956055,502.750031   C720.654419,502.886139 720.413269,502.726349 720.134277,502.282410   C720.039673,502.083801 720.482910,502.053711 720.702515,502.086731  z"></path>
<path fill="#1A2B38" opacity="1.000000" stroke="none" d=" M606.868408,624.616028   C606.831299,624.357727 607.104614,624.123291 607.642090,623.798218   C607.663696,624.018433 607.421265,624.329163 606.868408,624.616028  z"></path>
<path fill="#394952" opacity="1.000000" stroke="none" d=" M582.123901,502.242004   C582.042786,502.091309 582.500427,502.050293 582.729004,502.070160   C582.706726,502.190887 582.455872,502.291779 582.123901,502.242004  z"></path>
<path fill="#394952" opacity="1.000000" stroke="none" d=" M468.123901,502.241638   C468.042755,502.091095 468.500458,502.050049 468.729034,502.070068   C468.706757,502.190796 468.455902,502.291504 468.123901,502.241638  z"></path>
<path fill="#394952" opacity="1.000000" stroke="none" d=" M447.125061,502.244629   C447.044128,502.094391 447.500671,502.052795 447.728699,502.072754   C447.706451,502.193390 447.456207,502.294128 447.125061,502.244629  z"></path>
<path fill="#394952" opacity="1.000000" stroke="none" d=" M374.123291,502.240601   C374.042114,502.089630 374.500397,502.048981 374.729279,502.068939   C374.706909,502.189789 374.455688,502.290680 374.123291,502.240601  z"></path>
<path fill="#394952" opacity="1.000000" stroke="none" d=" M359.121521,502.237610   C359.040253,502.085541 359.500336,502.045807 359.730103,502.065491   C359.707489,502.186676 359.455139,502.288177 359.121521,502.237610  z"></path>
<path fill="#394952" opacity="1.000000" stroke="none" d=" M287.138184,502.263123   C287.054199,502.115967 287.506714,502.049530 287.734589,502.064880   C287.715668,502.190247 287.468903,502.300262 287.138184,502.263123  z"></path>
<path fill="#1A2B38" opacity="1.000000" stroke="none" d=" M669.149780,722.319214   C669.032532,722.166992 669.453857,721.938782 669.689636,721.896240   C669.705994,722.059570 669.486511,722.265503 669.149780,722.319214  z"></path>
<path fill="#1A2B38" opacity="1.000000" stroke="none" d=" M344.415527,573.847229   C344.759766,573.632080 345.026276,573.815247 345.352173,574.299744   C345.112671,574.396729 344.754761,574.278198 344.415527,573.847229  z"></path>
<path fill="#1A2B38" opacity="1.000000" stroke="none" d=" M359.008850,601.239136   C359.095520,601.479248 358.892303,601.779785 358.433472,602.188293   C358.358246,601.964050 358.538605,601.631775 359.008850,601.239136  z"></path>
<path fill="#1A2B38" opacity="1.000000" stroke="none" d=" M360.009277,600.239502   C360.096344,600.479370 359.893616,600.780029 359.435669,601.189392   C359.360168,600.965454 359.539795,600.632874 360.009277,600.239502  z"></path>
<path fill="#1A2B38" opacity="1.000000" stroke="none" d=" M361.036987,599.263306   C361.118683,599.508179 360.905823,599.799744 360.436218,600.195557   C360.367126,599.969849 360.554749,599.639954 361.036987,599.263306  z"></path>
<path fill="#1A2B38" opacity="1.000000" stroke="none" d=" M362.049103,598.276184   C362.140533,598.527710 361.934235,598.823792 361.472900,599.226440   C361.395721,598.995605 361.573547,598.658203 362.049103,598.276184  z"></path>
<path fill="#1A2B38" opacity="1.000000" stroke="none" d=" M363.039490,597.268311   C363.137756,597.519104 362.939667,597.821960 362.488159,598.235291   C362.404205,598.003967 362.573639,597.662170 363.039490,597.268311  z"></path>
<path fill="#1A2B38" opacity="1.000000" stroke="none" d=" M341.351746,570.882874   C341.626129,570.764771 341.916107,570.957520 342.321686,571.389404   C342.080658,571.483521 341.723999,571.338623 341.351746,570.882874  z"></path>
<path fill="#1A2B38" opacity="1.000000" stroke="none" d=" M342.370422,571.869873   C342.646790,571.740112 342.931030,571.922668 343.337463,572.331482   C343.099182,572.432556 342.738770,572.307312 342.370422,571.869873  z"></path>
<path fill="#1A2B38" opacity="1.000000" stroke="none" d=" M343.412720,572.848389   C343.763153,572.637207 344.030975,572.827881 344.348511,573.330933   C344.105774,573.422913 343.749756,573.291870 343.412720,572.848389  z"></path>
<path fill="#1A2B38" opacity="1.000000" stroke="none" d=" M391.798859,587.986572   C391.587494,588.028931 391.315399,587.798401 390.967987,587.305115   C391.174500,587.266113 391.456299,587.489990 391.798859,587.986572  z"></path>
<path fill="#1A2B38" opacity="1.000000" stroke="none" d=" M340.329529,569.899963   C340.598450,569.783875 340.895233,569.976135 341.307922,570.411987   C341.068359,570.506470 340.712860,570.357422 340.329529,569.899963  z"></path>
<path fill="#1A2B38" opacity="1.000000" stroke="none" d=" M389.526428,585.172363   C389.166077,585.358032 388.921967,585.160645 388.634827,584.673706   C388.881744,584.593872 389.232056,584.728943 389.526428,585.172363  z"></path>
<path fill="#1A2B38" opacity="1.000000" stroke="none" d=" M388.576904,584.157532   C388.235474,584.373108 387.972321,584.193542 387.644318,583.722168   C387.881836,583.623352 388.240417,583.734009 388.576904,584.157532  z"></path>
<path fill="#1A2B38" opacity="1.000000" stroke="none" d=" M387.544220,583.175049   C387.208313,583.385132 386.962097,583.214966 386.644745,582.781738   C386.878113,582.681519 387.231537,582.773621 387.544220,583.175049  z"></path>
<path fill="#1A2B38" opacity="1.000000" stroke="none" d=" M386.495209,582.184387   C386.156006,582.382568 385.931854,582.218567 385.642395,581.814209   C385.876526,581.718140 386.220886,581.800903 386.495209,582.184387  z"></path>
<path fill="#1A2B38" opacity="1.000000" stroke="none" d=" M345.439270,574.835327   C345.780487,574.623596 346.035980,574.800903 346.356964,575.259521   C346.120087,575.357605 345.763763,575.252197 345.439270,574.835327  z"></path>
<path fill="#1A2B38" opacity="1.000000" stroke="none" d=" M346.470459,575.825317   C346.815826,575.625366 347.058716,575.804077 347.364319,576.250916   C347.125549,576.343933 346.772522,576.238953 346.470459,575.825317  z"></path>
<path fill="#1A2B38" opacity="1.000000" stroke="none" d=" M350.551483,579.818359   C350.894470,579.630310 351.098785,579.786438 351.360352,580.165039   C351.124969,580.257019 350.790039,580.182068 350.551483,579.818359  z"></path>
<path fill="#1A2B38" opacity="1.000000" stroke="none" d=" M349.517517,578.814819   C349.854340,578.616638 350.070953,578.774109 350.352112,579.162231   C350.119843,579.259644 349.780060,579.185547 349.517517,578.814819  z"></path>
<path fill="#1A2B38" opacity="1.000000" stroke="none" d=" M348.477478,577.818176   C348.815063,577.614685 349.051392,577.783325 349.356628,578.204468   C349.122803,578.302307 348.772980,578.213440 348.477478,577.818176  z"></path>
<path fill="#1A2B38" opacity="1.000000" stroke="none" d=" M334.263550,563.962280   C334.511627,563.869263 334.813202,564.071960 335.224487,564.529968   C334.995178,564.609558 334.656128,564.433777 334.263550,563.962280  z"></path>
<path fill="#1A2B38" opacity="1.000000" stroke="none" d=" M329.232056,559.000366   C329.468536,558.919739 329.764862,559.126831 330.167664,559.589355   C329.946747,559.659302 329.619324,559.473755 329.232056,559.000366  z"></path>
<path fill="#1A2B38" opacity="1.000000" stroke="none" d=" M330.223328,560.010620   C330.458618,559.922913 330.763824,560.120911 331.179626,560.573608   C330.957916,560.651001 330.625549,560.473694 330.223328,560.010620  z"></path>
<path fill="#1A2B38" opacity="1.000000" stroke="none" d=" M331.233246,560.996338   C331.470642,560.911560 331.772034,561.115051 332.181824,561.574585   C331.959229,561.648743 331.628235,561.466675 331.233246,560.996338  z"></path>
<path fill="#1A2B38" opacity="1.000000" stroke="none" d=" M365.719574,562.053589   C365.466034,562.153137 365.165131,561.953674 364.752625,561.501953   C364.984802,561.417969 365.328491,561.586304 365.719574,562.053589  z"></path>
<path fill="#1A2B38" opacity="1.000000" stroke="none" d=" M332.235107,561.996460   C332.475281,561.902161 332.784088,562.096741 333.205719,562.545715   C332.980286,562.628540 332.642029,562.456909 332.235107,561.996460  z"></path>
<path fill="#1A2B38" opacity="1.000000" stroke="none" d=" M366.729462,563.042480   C366.477905,563.141296 366.174530,562.943054 365.760345,562.491089   C365.992249,562.406677 366.334930,562.576050 366.729462,563.042480  z"></path>
<path fill="#1A2B38" opacity="1.000000" stroke="none" d=" M381.819580,611.425293   C381.633514,611.084778 381.779602,610.893066 382.133850,610.647278   C382.226593,610.880554 382.163177,611.207458 381.819580,611.425293  z"></path>
<path fill="#1A2B38" opacity="1.000000" stroke="none" d=" M333.255066,562.972351   C333.500641,562.878174 333.805267,563.077576 334.221191,563.531982   C333.993011,563.613342 333.653534,563.439636 333.255066,562.972351  z"></path>
<path fill="#1A2B38" opacity="1.000000" stroke="none" d=" M367.741150,564.028687   C367.493408,564.125549 367.188965,563.928101 366.773651,563.476685   C367.003326,563.393250 367.343872,563.563843 367.741150,564.028687  z"></path>
<path fill="#1A2B38" opacity="1.000000" stroke="none" d=" M347.476868,576.822754   C347.823395,576.626648 348.064453,576.807495 348.367767,577.255005   C348.128632,577.345703 347.775757,577.238403 347.476868,576.822754  z"></path>
<path fill="#1A2B38" opacity="1.000000" stroke="none" d=" M368.758423,565.011353   C368.515533,565.106323 368.208832,564.910645 367.790924,564.460327   C368.018036,564.377380 368.356323,564.549011 368.758423,565.011353  z"></path>
<path fill="#1A2B38" opacity="1.000000" stroke="none" d=" M352.972778,607.207214   C353.043579,607.430725 352.826935,607.737244 352.351685,608.167053   C352.290436,607.957031 352.487885,607.623596 352.972778,607.207214  z"></path>
<path fill="#1A2B38" opacity="1.000000" stroke="none" d=" M353.972778,606.207825   C354.051697,606.435486 353.849030,606.735046 353.392273,607.143555   C353.322479,606.928223 353.506836,606.604004 353.972778,606.207825  z"></path>
<path fill="#1A2B38" opacity="1.000000" stroke="none" d=" M369.775085,565.990112   C369.539093,566.080200 369.232117,565.884216 368.812195,565.434326   C369.034149,565.354980 369.369080,565.529541 369.775085,565.990112  z"></path>
<path fill="#1A2B38" opacity="1.000000" stroke="none" d=" M354.973877,605.209106   C355.052521,605.437500 354.849396,605.737122 354.391663,606.145142   C354.322083,605.929138 354.507080,605.604797 354.973877,605.209106  z"></path>
<path fill="#1A2B38" opacity="1.000000" stroke="none" d=" M355.988647,604.220337   C356.065491,604.451355 355.857483,604.746948 355.393890,605.149048   C355.326813,604.932007 355.515320,604.608459 355.988647,604.220337  z"></path>
<path fill="#1A2B38" opacity="1.000000" stroke="none" d=" M370.807617,567.048828   C370.580505,567.119263 370.266449,566.896423 369.833954,566.405518   C370.050568,566.343445 370.385651,566.549438 370.807617,567.048828  z"></path>
<path fill="#1A2B38" opacity="1.000000" stroke="none" d=" M357.006287,603.234497   C357.085846,603.470215 356.876953,603.765747 356.411987,604.167847   C356.343201,603.947693 356.530548,603.621033 357.006287,603.234497  z"></path>
<path fill="#1A2B38" opacity="1.000000" stroke="none" d=" M358.008057,602.237671   C358.093750,602.476379 357.890045,602.776978 357.430908,603.186279   C357.356537,602.963257 357.537628,602.631409 358.008057,602.237671  z"></path>
<path fill="#FBFBFC" opacity="1.000000" stroke="none" d=" M371.661865,431.100769   C375.921326,428.521698 379.461639,424.859741 385.581207,426.890717   C391.351135,428.805634 396.105560,435.049072 396.635010,440.418823   C397.196655,446.115601 394.445251,450.882294 388.693787,453.960602   C380.899872,458.132111 379.005951,456.650787 370.439789,449.806763   C369.714996,449.197693 369.396240,449.000610 369.077515,448.803528   C369.077515,448.803528 369.067383,448.945251 369.063477,448.625977   C368.752960,447.806824 368.446381,447.306915 368.139832,446.807007   C368.139832,446.807007 368.112213,446.934784 368.114532,446.578491   C367.763184,445.422516 367.409546,444.622803 367.055878,443.823090   C367.055878,443.823090 367.053955,443.390198 367.044678,442.792053   C366.994537,441.135773 366.953674,440.077637 366.912781,439.019501   C366.912781,439.019501 367.050171,438.616150 367.350586,438.266815   C367.860413,437.317413 368.069824,436.717346 368.279236,436.117279   C368.279236,436.117279 368.139038,436.108826 368.410461,435.983521   C368.882935,435.267303 369.084015,434.676331 369.285095,434.085388   C369.635101,434.050293 369.866180,433.866028 370.252319,433.100647   C370.904816,432.146057 371.283356,431.623413 371.661865,431.100769  z"></path>
<path fill="#FBFBFC" opacity="1.000000" stroke="none" d=" M339.925598,429.248505   C341.012360,430.438232 342.099121,431.627930 343.551270,433.237976   C344.255280,434.146973 344.593872,434.635620 344.932465,435.124268   C344.932465,435.124268 344.966370,435.051056 344.977234,435.456909   C345.147827,439.205200 345.307617,442.547638 345.467377,445.890106   C342.486877,451.016754 339.536469,455.814667 332.389709,455.923035   C324.848694,456.037292 317.346588,449.645721 317.025055,441.975616   C316.955872,440.325256 317.022583,438.669220 317.306885,436.505127   C317.775391,435.686127 317.963684,435.377777 318.151978,435.069458   C318.151978,435.069458 318.062683,435.074127 318.326599,434.928589   C318.852264,434.224731 319.113983,433.666351 319.375671,433.107971   C320.522308,432.030182 321.668915,430.952393 323.245422,429.505798   C324.162506,428.783508 324.649689,428.429993 325.136871,428.076477   C325.136871,428.076477 325.059235,428.046417 325.463196,428.032928   C329.894226,428.045441 333.921326,428.071472 337.948395,428.097473   C337.948395,428.097473 337.956848,428.014618 338.120422,428.266174   C338.831207,428.761292 339.378387,429.004913 339.925598,429.248505  z"></path>
<path fill="#1A2B38" opacity="1.000000" stroke="none" d=" M337.919800,427.717712   C333.921326,428.071472 329.894226,428.045441 325.458679,428.074310   C328.915955,424.245728 332.450623,424.027924 337.919800,427.717712  z"></path>
<path fill="#1A2B38" opacity="1.000000" stroke="none" d=" M345.839966,445.782288   C345.307617,442.547638 345.147827,439.205200 344.937073,435.453125   C348.426086,438.200623 349.217834,441.700653 345.839966,445.782288  z"></path>
<path fill="#1A2B38" opacity="1.000000" stroke="none" d=" M366.652069,439.222168   C366.953674,440.077637 366.994537,441.135773 366.974579,442.587280   C366.739624,441.795349 366.565491,440.610077 366.652069,439.222168  z"></path>
<path fill="#1A2B38" opacity="1.000000" stroke="none" d=" M367.034973,444.193237   C367.409546,444.622803 367.763184,445.422516 368.179626,446.572754   C367.832977,446.136627 367.423553,445.350037 367.034973,444.193237  z"></path>
<path fill="#1A2B38" opacity="1.000000" stroke="none" d=" M324.798645,428.093597   C324.649689,428.429993 324.162506,428.783508 323.388702,429.244568   C323.554871,428.938354 324.007660,428.524536 324.798645,428.093597  z"></path>
<path fill="#1A2B38" opacity="1.000000" stroke="none" d=" M339.805817,428.945984   C339.378387,429.004913 338.831207,428.761292 338.085693,428.289154   C338.486938,428.254883 339.086487,428.449158 339.805817,428.945984  z"></path>
<path fill="#1A2B38" opacity="1.000000" stroke="none" d=" M371.310944,431.184265   C371.283356,431.623413 370.904816,432.146057 370.273315,432.868652   C370.333557,432.468353 370.646790,431.868042 371.310944,431.184265  z"></path>
<path fill="#1A2B38" opacity="1.000000" stroke="none" d=" M319.053406,433.213654   C319.113983,433.666351 318.852264,434.224731 318.342926,434.970245   C318.307251,434.544739 318.519196,433.932037 319.053406,433.213654  z"></path>
<path fill="#1A2B38" opacity="1.000000" stroke="none" d=" M344.913147,434.793701   C344.593872,434.635620 344.255280,434.146973 343.826691,433.368622   C344.122406,433.540314 344.508148,434.001709 344.913147,434.793701  z"></path>
<path fill="#1A2B38" opacity="1.000000" stroke="none" d=" M368.967255,434.210510   C369.084015,434.676331 368.882935,435.267303 368.433167,436.049988   C368.339447,435.606384 368.494446,434.970978 368.967255,434.210510  z"></path>
<path fill="#1A2B38" opacity="1.000000" stroke="none" d=" M367.958038,436.224731   C368.069824,436.717346 367.860413,437.317413 367.356567,438.053833   C367.253693,437.570862 367.445282,436.951508 367.958038,436.224731  z"></path>
<path fill="#1A2B38" opacity="1.000000" stroke="none" d=" M368.108856,447.141663   C368.446381,447.306915 368.752960,447.806824 369.134033,448.617798   C368.831635,448.444672 368.454773,447.960480 368.108856,447.141663  z"></path>
<path fill="#1A2B38" opacity="1.000000" stroke="none" d=" M369.175842,449.077942   C369.396240,449.000610 369.714996,449.197693 370.146301,449.656494   C369.930664,449.729614 369.602417,449.541016 369.175842,449.077942  z"></path>
<path fill="#1A2B38" opacity="1.000000" stroke="none" d=" M317.887146,435.148804   C317.963684,435.377777 317.775391,435.686127 317.313782,436.066528   C317.234344,435.835144 317.428314,435.531647 317.887146,435.148804  z"></path>
</svg>
